<svg width="597" height="646" viewBox="0 0 597 646" fill="none" xmlns="http://www.w3.org/2000/svg">
<g clip-path="url(#clip0_7_28)">
<g clip-path="url(#clip1_7_28)">
<g clip-path="url(#clip2_7_28)">
<rect x="20.5" y="94.5" width="556" height="540" fill="#422D2A" stroke="#935F47" stroke-width="23"/>
<path d="M565 210C565 210 534.5 126.5 297 126.5C59.5 126.5 32 210 32 210V83.5H565V210Z" fill="#5E4437"/>
<g filter="url(#filter0_i_7_28)">
<path d="M591 80V108H298.5H6V80H4L0 75.5V44.25H50.5V55.5L298.5 0L546.5 55.5V44.25H597V75.5L593 80H591Z" fill="#5E4437"/>
</g>
<path d="M591 80V108H298.5H6V80H4L0 75.5V44.25H50.5V55.5L298.5 0L546.5 55.5V44.25H597V75.5L593 80H591Z" stroke="#5E4437"/>
<g filter="url(#filter1_i_7_28)">
<path d="M52.5 74L299 17.5L546.5 74V78.5H52.5V74Z" fill="#935F47"/>
</g>
<rect x="31" y="312" width="535" height="24" fill="#5E4437"/>
<rect x="31" y="489" width="535" height="23" fill="#5E4437"/>
<rect x="32" y="623" width="535" height="23" fill="#935F47"/>
</g>
</g>
<g clip-path="url(#clip3_7_28)">
<path d="M562.808 348.445L518.276 487.488C518.276 487.488 517.666 489.393 504.333 485.122C491 480.852 491.61 478.947 491.61 478.947L536.142 339.905C536.142 339.905 536.752 338 550.085 342.27C563.418 346.54 562.808 348.445 562.808 348.445Z" fill="#D9D9D9"/>
<rect x="533.092" y="349.428" width="28" height="18" transform="rotate(17.7591 533.092 349.428)" fill="#DFC740"/>
<rect x="499.846" y="453.234" width="28" height="18" transform="rotate(17.7591 499.846 453.234)" fill="#DFC740"/>
<path d="M513.531 427.079C514.833 428.941 516.098 430.842 517.325 432.78L515.886 433.655C513.931 432.651 512.419 431.797 511.351 431.094C512.398 432.336 513.477 433.492 514.587 434.562C515.022 434.987 515.512 435.451 516.057 435.953L514.523 436.809C513.317 435.642 512.399 434.693 511.768 433.962C510.68 432.689 509.682 431.399 508.774 430.092L510.786 428.884C512.09 429.797 513.38 430.58 514.658 431.233C513.576 429.551 512.24 427.674 510.652 425.603L512.582 424.419C513.913 425.349 514.829 426.017 515.33 426.421C515.825 426.814 516.239 427.149 516.571 427.423C517.169 427.917 517.919 428.565 518.822 429.366L517.278 430.371C516.2 429.329 515.376 428.573 514.803 428.104C514.231 427.635 513.807 427.294 513.531 427.079ZM517.581 423.051C517.466 423.409 517.349 423.683 517.23 423.871C517.488 424.088 517.833 424.283 518.265 424.455C518.609 423.12 518.721 421.761 518.601 420.379C518.565 419.914 518.494 419.454 518.387 419L519.618 419.13C519.841 419.982 519.969 420.947 520.001 422.024C520.038 423.17 519.932 424.207 519.685 425.136L517.917 426.132C516.866 425.796 515.997 425.203 515.312 424.353C514.842 423.749 514.514 423.132 514.33 422.501C514.148 421.863 514.057 421.28 514.059 420.751L516.277 419.332C517.009 419.776 517.468 420.323 517.655 420.971C517.842 421.619 517.818 422.312 517.581 423.051ZM516.355 423.062C516.497 422.62 516.498 422.196 516.359 421.79C516.192 421.317 515.849 420.997 515.331 420.831C515.504 421.735 515.845 422.478 516.355 423.062ZM518.98 412.939C518.682 412.163 518.453 411.334 518.29 410.45L519.819 409.415C520.754 409.983 521.497 410.666 522.048 411.464C522.033 410.645 521.932 409.663 521.744 408.519L522.975 408.649C523.081 409.027 523.191 409.588 523.306 410.33C523.495 411.6 523.592 412.467 523.595 412.93L522.135 414.025C521.302 412.717 520.559 411.865 519.904 411.471C520.036 412.395 520.244 413.293 520.528 414.165C521.246 414.807 521.906 415.527 522.508 416.324L521.184 417.349C520.813 416.827 520.44 416.368 520.063 415.97C519.446 415.327 518.939 414.891 518.541 414.663C518.65 415.504 518.822 416.303 519.059 417.059C519.135 417.319 519.22 417.594 519.312 417.884C520.009 418.485 520.728 419.047 521.468 419.57L520.153 420.648C519.359 420.108 518.502 419.388 517.581 418.489C516.756 417.679 516.092 416.895 515.587 416.136L516.791 415.249C517.076 415.643 517.383 416.01 517.711 416.35C517.362 415.474 517.101 414.571 516.928 413.642L518.456 412.607L518.98 412.939ZM522.907 406.422C522.792 406.78 522.675 407.054 522.556 407.242C522.814 407.459 523.159 407.654 523.591 407.826C523.935 406.491 524.047 405.132 523.927 403.75C523.891 403.285 523.819 402.825 523.713 402.371L524.944 402.501C525.167 403.353 525.294 404.318 525.327 405.396C525.364 406.541 525.258 407.579 525.011 408.507L523.243 409.504C522.192 409.167 521.323 408.574 520.638 407.724C520.167 407.12 519.84 406.503 519.656 405.872C519.474 405.234 519.383 404.651 519.385 404.122L521.603 402.703C522.334 403.148 522.794 403.694 522.981 404.342C523.168 404.99 523.144 405.683 522.907 406.422ZM521.681 406.433C521.823 405.991 521.824 405.567 521.685 405.162C521.518 404.688 521.175 404.368 520.657 404.202C520.829 405.106 521.171 405.849 521.681 406.433ZM521.366 401.202C520.987 400.678 520.62 400.056 520.262 399.337L521.425 398.538C521.749 398.734 521.981 398.888 522.121 399C522.329 397.983 522.45 397.24 522.482 396.772C522.515 396.303 522.54 395.896 522.559 395.549L524.021 395.664C524.013 396.006 523.988 396.359 523.946 396.724C524.609 397.516 525.348 398.236 526.165 398.884C526.136 397.48 526.031 396.417 525.851 395.696L527.086 395.814C527.318 396.662 527.493 397.73 527.609 399.019C527.644 399.433 527.665 399.826 527.672 400.198L526.073 401.022C525.096 400.163 524.287 399.32 523.645 398.492C523.52 399.04 523.399 399.522 523.282 399.939C523.472 400.134 523.938 400.645 524.682 401.471L524.948 402.488L523.96 403.369C523.477 402.517 523.134 401.937 522.93 401.628C522.727 401.319 522.552 401.053 522.405 400.83C522.09 400.972 521.744 401.097 521.366 401.202ZM528.209 391.676C528.247 390.327 528.2 389.359 528.069 388.771L529.304 388.889C529.565 389.645 529.762 390.46 529.894 391.334C529.946 391.644 529.974 391.91 529.979 392.13L529.183 392.492C530.082 393.015 530.775 393.514 531.261 393.989C531.707 394.434 532.116 394.994 532.488 395.667C532.197 396.498 531.769 397.373 531.206 398.293C531.03 398.581 530.854 398.84 530.68 399.07L528.772 398.535C528.486 397.88 528.287 397.191 528.175 396.466L527.482 396.975C526.499 396.584 525.371 395.647 524.098 394.165C523.701 393.701 523.313 393.208 522.935 392.683L524.218 391.784C525.665 393.717 526.814 394.879 527.663 395.269C527.732 394.845 527.74 394.491 527.689 394.206C527.586 393.635 527.333 393.126 526.931 392.678C525.83 391.603 524.997 390.689 524.432 389.937L525.768 389.029C526.672 390.142 527.486 391.024 528.209 391.676ZM529.976 397.648C530.361 396.998 530.634 396.447 530.795 395.995C530.535 395.365 530 394.766 529.192 394.196C529.297 395.599 529.558 396.749 529.976 397.648ZM528.603 424.636C528.954 424.354 529.34 424.079 529.762 423.811L531.129 424.5C531.459 425.749 531.461 427.161 531.133 428.736C531.04 429.184 530.931 429.603 530.806 429.992L529.227 430.91C527.383 429.244 525.867 427.486 524.679 425.635C524.407 426.195 524.217 426.646 524.107 426.989L522.904 426.062C523.235 425.16 523.608 424.31 524.024 423.51C524.432 422.708 524.941 421.96 525.55 421.265L527.759 421.015C528.351 422.103 528.633 423.31 528.603 424.636ZM527.21 426.27C527.271 425.449 527.271 424.819 527.211 424.38C527.124 423.68 526.966 423.071 526.737 422.552C526.077 423.223 525.443 424.154 524.835 425.345L525.984 424.591C526.534 425.389 526.943 425.949 527.21 426.27ZM529.479 428.785C529.824 427.552 529.907 426.465 529.729 425.526C529.339 425.695 528.874 426.072 528.334 426.655C528.189 426.818 528.051 426.976 527.919 427.126C528.444 427.74 528.965 428.293 529.479 428.785ZM532.797 418.033C533.408 419.035 533.633 420.17 533.471 421.437L531.591 422.624C530.859 422.39 530.182 422.013 529.559 421.494C528.777 420.841 528.242 420.006 527.954 418.99C527.751 418.286 527.712 417.581 527.838 416.873L529.974 415.554C530.756 415.947 531.401 416.397 531.91 416.905C532.056 416.347 532.178 415.701 532.279 414.969L533.513 415.087C533.608 416.209 533.637 417.076 533.601 417.686L532.797 418.033ZM531.887 421.03C531.967 420.098 531.662 419.203 530.971 418.343C530.676 417.98 530.374 417.69 530.065 417.473C529.757 417.257 529.501 417.112 529.297 417.038C529.183 417.682 529.323 418.374 529.716 419.113C530.203 420.033 530.926 420.672 531.887 421.03ZM534.941 411.337C535.553 412.339 535.777 413.474 535.615 414.741L533.736 415.928C533.004 415.694 532.327 415.317 531.703 414.798C530.921 414.144 530.387 413.31 530.099 412.293C529.896 411.59 529.857 410.884 529.983 410.177L532.119 408.858C532.9 409.251 533.546 409.701 534.055 410.209C534.2 409.65 534.323 409.005 534.423 408.273L535.658 408.391C535.752 409.513 535.781 410.379 535.746 410.99L534.941 411.337ZM534.032 414.334C534.112 413.402 533.806 412.506 533.116 411.647C532.821 411.283 532.519 410.993 532.21 410.777C531.901 410.561 531.645 410.416 531.442 410.342C531.328 410.986 531.468 411.678 531.861 412.417C532.348 413.337 533.071 413.976 534.032 414.334ZM537.678 402.083C538.04 403.342 538.301 404.597 538.463 405.85L536.999 406.957C536.253 406.978 535.556 406.927 534.907 406.803C535.666 407.475 536.525 408.174 537.485 408.902L536.17 409.98C534.599 408.746 532.979 407.223 531.308 405.411C530.785 404.84 530.287 404.269 529.815 403.698L531.072 402.803C531.961 403.936 533.01 405.066 534.22 406.192C533.595 404.867 533.065 403.529 532.632 402.181L534.091 401.363C534.533 403.05 534.907 404.363 535.211 405.3C535.619 405.288 536.126 405.236 536.735 405.146C536.717 404.073 536.62 403.013 536.443 401.965L537.678 402.083Z" fill="black"/>
</g>
<g clip-path="url(#clip4_7_28)">
<path d="M260.031 623.166H114.031C114.031 623.166 112.031 623.166 112.031 609.166C112.031 595.166 114.031 595.166 114.031 595.166H260.031C260.031 595.166 262.031 595.166 262.031 609.166C262.031 623.166 260.031 623.166 260.031 623.166Z" fill="#754F4F"/>
<rect x="250.031" y="595.166" width="28" height="18" transform="rotate(90 250.031 595.166)" fill="#6C5F14"/>
<rect x="141.031" y="595.166" width="28" height="18" transform="rotate(90 141.031 595.166)" fill="#6C5F14"/>
<path d="M178.624 603.57C179.712 603.81 180.932 603.954 182.284 604.002L181.792 605.55C180.584 605.526 179.304 605.366 177.952 605.07L176.584 603.822C177.144 602.534 177.976 601.098 179.08 599.514C179.392 599.058 179.696 598.65 179.992 598.29C179.432 598.202 178.972 598.158 178.612 598.158L179.176 596.67C181.424 596.742 183.42 597.15 185.164 597.894L184.48 599.646C183.272 599.07 181.9 598.638 180.364 598.35L181.396 599.202C181.012 599.666 180.664 600.138 180.352 600.618C181.144 600.794 181.932 600.918 182.716 600.99L182.176 602.514C180.952 602.298 180.056 602.114 179.488 601.962C179.184 602.466 178.896 603.002 178.624 603.57ZM184.521 605.058C184.521 604.738 184.629 604.47 184.845 604.254C185.061 604.038 185.325 603.93 185.637 603.93C185.949 603.93 186.213 604.038 186.429 604.254C186.645 604.47 186.753 604.734 186.753 605.046C186.753 605.526 186.525 605.87 186.069 606.078C185.621 606.27 185.213 606.19 184.845 605.838C184.629 605.63 184.521 605.37 184.521 605.058ZM189.048 604.23C189.536 603.014 190.068 601.946 190.644 601.026C191.228 600.098 191.78 599.274 192.3 598.554C191.34 598.25 190.496 598.006 189.768 597.822L190.656 596.442C192.416 596.778 194.44 597.39 196.728 598.278L195.9 599.934C194.652 599.414 193.572 598.994 192.66 598.674L193.68 599.586C192.76 600.834 191.94 602.238 191.22 603.798C190.972 604.318 190.716 604.89 190.452 605.514L189.048 604.23Z" fill="black"/>
</g>
<g clip-path="url(#clip5_7_28)">
<path d="M395.031 489.166H249.031C249.031 489.166 247.031 489.166 247.031 475.166C247.031 461.166 249.031 461.166 249.031 461.166H395.031C395.031 461.166 397.031 461.166 397.031 475.166C397.031 489.166 395.031 489.166 395.031 489.166Z" fill="#892877"/>
<rect x="385.031" y="461.166" width="28" height="18" transform="rotate(90 385.031 461.166)" fill="#4A2984"/>
<rect x="276.031" y="461.166" width="28" height="18" transform="rotate(90 276.031 461.166)" fill="#4A2984"/>
<path d="M285.064 469.006C284.472 468.622 283.932 468.298 283.444 468.034C282.764 469.33 282.208 470.49 281.776 471.514L280.372 470.23C280.772 469.342 281.288 468.35 281.92 467.254L280.972 466.798L281.788 465.394L282.748 465.85C283.484 464.65 284.144 463.678 284.728 462.934L286.024 464.098C285.696 464.53 285.12 465.374 284.296 466.63C284.808 466.918 285.328 467.226 285.856 467.554C287.024 465.546 287.976 464.078 288.712 463.15L290.008 464.314C289.064 465.586 288.156 466.99 287.284 468.526L288.304 469.282L287.368 470.65L286.516 470.002C286.172 470.682 285.896 471.302 285.688 471.862L284.296 470.578C284.488 470.146 284.744 469.622 285.064 469.006ZM293.002 470.41C292.37 470.906 291.642 471.266 290.818 471.49L289.33 470.11C289.33 469.478 289.426 468.858 289.618 468.25C289.81 467.642 290.094 467.094 290.47 466.606C290.846 466.118 291.31 465.714 291.862 465.394C292.422 465.066 293.066 464.87 293.794 464.806L294.586 466.018C294.682 465.866 294.886 465.602 295.198 465.226L296.374 466.234C295.582 467.266 294.926 468.37 294.406 469.546L294.37 469.57C294.834 469.45 295.378 469.246 296.002 468.958C296.626 468.662 297.022 468.47 297.19 468.382L297.454 469.594C296.982 469.938 296.198 470.382 295.102 470.926C294.67 471.142 294.278 471.314 293.926 471.442L293.002 470.41ZM291.01 469.762C291.866 469.53 292.646 468.962 293.35 468.058C293.558 467.602 293.714 467.034 293.818 466.354C292.994 466.434 292.318 466.798 291.79 467.446C291.27 468.086 291.01 468.858 291.01 469.762ZM297.588 465.79C297.972 465.27 298.452 464.73 299.028 464.17L300.144 465.034C300.056 465.402 299.98 465.67 299.916 465.838C300.948 465.726 301.692 465.614 302.148 465.502C302.604 465.39 303 465.29 303.336 465.202L303.672 466.63C303.344 466.726 303 466.81 302.64 466.882C302.088 467.754 301.628 468.678 301.26 469.654C302.588 469.198 303.568 468.774 304.2 468.382L304.464 469.594C303.728 470.074 302.764 470.566 301.572 471.07C301.188 471.23 300.82 471.37 300.468 471.49L299.196 470.218C299.716 469.026 300.272 467.998 300.864 467.134C300.304 467.182 299.808 467.214 299.376 467.23C299.248 467.47 298.904 468.07 298.344 469.03L297.456 469.594L296.316 468.922C296.98 468.202 297.428 467.698 297.66 467.41C297.892 467.122 298.092 466.874 298.26 466.666C298.028 466.41 297.804 466.118 297.588 465.79ZM304.596 465.79C304.98 465.27 305.46 464.73 306.036 464.17L307.152 465.034C307.064 465.402 306.988 465.67 306.924 465.838C307.956 465.726 308.7 465.614 309.156 465.502C309.612 465.39 310.008 465.29 310.344 465.202L310.68 466.63C310.352 466.726 310.008 466.81 309.648 466.882C309.096 467.754 308.636 468.678 308.268 469.654C309.596 469.198 310.576 468.774 311.208 468.382L311.472 469.594C310.736 470.074 309.772 470.566 308.58 471.07C308.196 471.23 307.828 471.37 307.476 471.49L306.204 470.218C306.724 469.026 307.28 467.998 307.872 467.134C307.312 467.182 306.816 467.214 306.384 467.23C306.256 467.47 305.912 468.07 305.352 469.03L304.464 469.594L303.324 468.922C303.988 468.202 304.436 467.698 304.668 467.41C304.9 467.122 305.1 466.874 305.268 466.666C305.036 466.41 304.812 466.118 304.596 465.79ZM315.756 469.402C317.052 469.026 317.96 468.686 318.48 468.382L318.744 469.594C318.104 470.074 317.388 470.51 316.596 470.902C316.316 471.046 316.072 471.154 315.864 471.226L315.276 470.578C315.052 471.594 314.788 472.406 314.484 473.014C314.196 473.574 313.788 474.134 313.26 474.694C312.38 474.67 311.416 474.53 310.368 474.274C310.04 474.194 309.74 474.106 309.468 474.01L309.396 472.03C309.932 471.558 310.528 471.158 311.184 470.83L310.488 470.326C310.56 469.27 311.108 467.91 312.132 466.246C312.452 465.726 312.804 465.206 313.188 464.686L314.436 465.634C313.036 467.602 312.28 469.05 312.168 469.978C312.592 469.914 312.932 469.814 313.188 469.678C313.7 469.406 314.108 469.01 314.412 468.49C315.1 467.114 315.716 466.042 316.26 465.274L317.532 466.27C316.748 467.47 316.156 468.514 315.756 469.402ZM310.608 472.906C311.344 473.074 311.952 473.166 312.432 473.182C312.952 472.742 313.36 472.05 313.656 471.106C312.352 471.634 311.336 472.234 310.608 472.906ZM321.981 470.266C322.517 469.082 322.997 468.142 323.421 467.446C324.109 466.302 324.825 465.29 325.569 464.41C325.017 464.314 324.521 464.266 324.081 464.266L324.597 462.838C326.101 462.886 327.409 463.082 328.521 463.426C328.937 463.554 329.357 463.71 329.781 463.894L330.717 465.994C330.165 466.778 329.457 467.458 328.593 468.034C327.737 468.602 326.809 469.022 325.809 469.294L325.017 468.166C324.393 469.214 323.837 470.334 323.349 471.526L321.981 470.266ZM325.197 467.866C326.885 467.282 328.153 466.478 329.001 465.454C328.241 465.054 327.221 464.726 325.941 464.47L326.973 465.322C326.333 466.13 325.741 466.978 325.197 467.866ZM335.191 469.81C334.423 470.698 333.411 471.258 332.155 471.49L330.451 470.062C330.451 469.294 330.603 468.534 330.907 467.782C331.291 466.838 331.923 466.074 332.803 465.49C333.411 465.082 334.071 464.83 334.783 464.734L336.691 466.366C336.555 467.23 336.323 467.982 335.995 468.622C336.571 468.59 337.223 468.51 337.951 468.382L338.215 469.594C337.175 470.026 336.359 470.318 335.767 470.47L335.191 469.81ZM332.059 469.858C332.971 469.65 333.731 469.086 334.339 468.166C334.595 467.774 334.779 467.398 334.891 467.038C335.003 466.678 335.063 466.39 335.071 466.174C334.423 466.262 333.807 466.606 333.223 467.206C332.495 467.95 332.107 468.834 332.059 469.858ZM340.878 465.862C341.622 465.782 342.17 465.694 342.522 465.598L342.798 466.894C342.094 467.07 341.198 467.174 340.11 467.206C339.622 468.166 339.258 469.038 339.018 469.822C339.666 469.71 340.358 469.55 341.094 469.342C341.83 469.126 342.57 468.806 343.314 468.382L343.566 469.594C342.838 470.098 342.006 470.53 341.07 470.89C340.15 471.242 339.334 471.442 338.622 471.49L337.134 470.11C337.606 468.542 338.41 466.89 339.546 465.154C339.898 464.61 340.274 464.086 340.674 463.582L341.742 464.566C341.43 464.998 341.142 465.43 340.878 465.862ZM346.245 465.862C346.989 465.782 347.537 465.694 347.889 465.598L348.165 466.894C347.461 467.07 346.565 467.174 345.477 467.206C344.989 468.166 344.625 469.038 344.385 469.822C345.033 469.71 345.725 469.55 346.461 469.342C347.197 469.126 347.937 468.806 348.681 468.382L348.933 469.594C348.205 470.098 347.373 470.53 346.437 470.89C345.517 471.242 344.701 471.442 343.989 471.49L342.501 470.11C342.973 468.542 343.777 466.89 344.913 465.154C345.265 464.61 345.641 464.086 346.041 463.582L347.109 464.566C346.797 464.998 346.509 465.43 346.245 465.862ZM351.037 468.85C350.661 468.85 350.365 468.822 350.149 468.766C350.021 469.078 349.941 469.466 349.909 469.93C351.285 469.85 352.613 469.542 353.893 469.006C354.325 468.83 354.741 468.622 355.141 468.382L355.393 469.594C354.649 470.066 353.769 470.482 352.753 470.842C351.673 471.226 350.653 471.442 349.693 471.49L348.205 470.11C348.205 469.006 348.505 467.998 349.105 467.086C349.537 466.454 350.025 465.954 350.569 465.586C351.121 465.218 351.649 464.954 352.153 464.794L354.181 466.474C353.981 467.306 353.601 467.91 353.041 468.286C352.481 468.662 351.813 468.85 351.037 468.85ZM350.653 467.686C351.117 467.686 351.521 467.558 351.865 467.302C352.265 466.998 352.465 466.574 352.465 466.03C351.657 466.47 351.053 467.022 350.653 467.686ZM355.538 465.79C355.922 465.27 356.402 464.73 356.978 464.17L358.094 465.034C358.006 465.402 357.93 465.67 357.866 465.838C358.898 465.726 359.642 465.614 360.098 465.502C360.554 465.39 360.95 465.29 361.286 465.202L361.622 466.63C361.294 466.726 360.95 466.81 360.59 466.882C360.038 467.754 359.578 468.678 359.21 469.654C360.538 469.198 361.518 468.774 362.15 468.382L362.414 469.594C361.678 470.074 360.714 470.566 359.522 471.07C359.138 471.23 358.77 471.37 358.418 471.49L357.146 470.218C357.666 469.026 358.222 467.998 358.814 467.134C358.254 467.182 357.758 467.214 357.326 467.23C357.198 467.47 356.854 468.07 356.294 469.03L355.406 469.594L354.266 468.922C354.93 468.202 355.378 467.698 355.61 467.41C355.842 467.122 356.042 466.874 356.21 466.666C355.978 466.41 355.754 466.118 355.538 465.79Z" fill="black"/>
</g>
<g clip-path="url(#clip6_7_28)">
<path d="M273 595H127C127 595 125 595 125 581C125 567 127 567 127 567H273C273 567 275 567 275 581C275 595 273 595 273 595Z" fill="#1B6EB1"/>
<rect x="263" y="567" width="28" height="18" transform="rotate(90 263 567)" fill="#7C1A1C"/>
<rect x="154" y="567" width="28" height="18" transform="rotate(90 154 567)" fill="#7C1A1C"/>
<path d="M163.573 569.956C162.717 570.412 161.941 571.02 161.245 571.78C161.333 572.06 161.461 572.36 161.629 572.68C161.797 572.992 161.973 573.328 162.157 573.688C162.645 574.6 162.993 575.38 163.201 576.028L162.193 577.636C160.697 577.244 159.369 576.696 158.209 575.992C157.849 575.768 157.493 575.536 157.141 575.296L157.945 573.832C159.161 574.672 160.273 575.288 161.281 575.68C161.089 575.208 160.801 574.64 160.417 573.976C160.033 573.304 159.753 572.8 159.577 572.464C159.409 572.12 159.277 571.78 159.181 571.444C159.677 570.828 160.309 570.22 161.077 569.62C161.781 569.068 162.453 568.64 163.093 568.336L165.409 569.884C165.257 570.564 164.909 571.408 164.365 572.416C164.229 572.672 164.109 572.876 164.005 573.028L162.565 572.2C162.885 571.688 163.221 570.94 163.573 569.956ZM167.693 572.632C168.221 572.16 168.921 571.68 169.793 571.192L171.245 572.332C171.181 572.972 171.077 573.524 170.933 573.988C170.789 574.452 170.553 574.852 170.225 575.188C171.089 574.908 171.909 574.584 172.685 574.216L172.937 575.428C171.921 575.996 170.505 576.504 168.689 576.952C168.129 577.096 167.565 577.22 166.997 577.324L165.881 576.304C165.193 577.856 164.681 579.224 164.345 580.408L162.977 579.484C163.961 576.524 165.341 573.548 167.117 570.556L168.329 571.444L167.693 572.632ZM166.025 575.98C166.889 575.844 167.521 575.696 167.921 575.536C168.497 575.264 168.953 574.688 169.289 573.808C169.401 573.536 169.477 573.256 169.517 572.968C168.701 573.4 167.953 573.864 167.273 574.36C167.041 574.528 166.793 574.712 166.529 574.912L166.025 575.98ZM176.961 575.644C176.193 576.532 175.181 577.092 173.925 577.324L172.221 575.896C172.221 575.128 172.373 574.368 172.677 573.616C173.061 572.672 173.693 571.908 174.573 571.324C175.181 570.916 175.841 570.664 176.553 570.568L178.461 572.2C178.325 573.064 178.093 573.816 177.765 574.456C178.341 574.424 178.993 574.344 179.721 574.216L179.985 575.428C178.945 575.86 178.129 576.152 177.537 576.304L176.961 575.644ZM173.829 575.692C174.741 575.484 175.501 574.92 176.109 574C176.365 573.608 176.549 573.232 176.661 572.872C176.773 572.512 176.833 572.224 176.841 572.008C176.193 572.096 175.577 572.44 174.993 573.04C174.265 573.784 173.877 574.668 173.829 575.692ZM183.992 575.644C183.224 576.532 182.212 577.092 180.956 577.324L179.252 575.896C179.252 575.128 179.404 574.368 179.708 573.616C180.092 572.672 180.724 571.908 181.604 571.324C182.212 570.916 182.872 570.664 183.584 570.568L185.492 572.2C185.356 573.064 185.124 573.816 184.796 574.456C185.372 574.424 186.024 574.344 186.752 574.216L187.016 575.428C185.976 575.86 185.16 576.152 184.568 576.304L183.992 575.644ZM180.86 575.692C181.772 575.484 182.532 574.92 183.14 574C183.396 573.608 183.58 573.232 183.692 572.872C183.804 572.512 183.864 572.224 183.872 572.008C183.224 572.096 182.608 572.44 182.024 573.04C181.296 573.784 180.908 574.668 180.86 575.692ZM189.079 572.632C189.607 572.16 190.307 571.68 191.179 571.192L192.631 572.332C192.567 572.972 192.463 573.524 192.319 573.988C192.175 574.452 191.939 574.852 191.611 575.188C192.475 574.908 193.295 574.584 194.071 574.216L194.323 575.428C193.307 575.996 191.891 576.504 190.075 576.952C189.515 577.096 188.951 577.22 188.383 577.324L187.267 576.304C186.579 577.856 186.067 579.224 185.731 580.408L184.363 579.484C185.347 576.524 186.727 573.548 188.503 570.556L189.715 571.444L189.079 572.632ZM187.411 575.98C188.275 575.844 188.907 575.696 189.307 575.536C189.883 575.264 190.339 574.688 190.675 573.808C190.787 573.536 190.863 573.256 190.903 572.968C190.087 573.4 189.339 573.864 188.659 574.36C188.427 574.528 188.179 574.712 187.915 574.912L187.411 575.98ZM198.624 575.236C199.92 574.86 200.828 574.52 201.348 574.216L201.612 575.428C200.972 575.908 200.256 576.344 199.464 576.736C199.184 576.88 198.94 576.988 198.732 577.06L198.144 576.412C197.92 577.428 197.656 578.24 197.352 578.848C197.064 579.408 196.656 579.968 196.128 580.528C195.248 580.504 194.284 580.364 193.236 580.108C192.908 580.028 192.608 579.94 192.336 579.844L192.264 577.864C192.8 577.392 193.396 576.992 194.052 576.664L193.356 576.16C193.428 575.104 193.976 573.744 195 572.08C195.32 571.56 195.672 571.04 196.056 570.52L197.304 571.468C195.904 573.436 195.148 574.884 195.036 575.812C195.46 575.748 195.8 575.648 196.056 575.512C196.568 575.24 196.976 574.844 197.28 574.324C197.968 572.948 198.584 571.876 199.128 571.108L200.4 572.104C199.616 573.304 199.024 574.348 198.624 575.236ZM193.476 578.74C194.212 578.908 194.82 579 195.3 579.016C195.82 578.576 196.228 577.884 196.524 576.94C195.22 577.468 194.204 578.068 193.476 578.74ZM211.257 569.956C210.401 570.412 209.625 571.02 208.929 571.78C209.017 572.06 209.145 572.36 209.313 572.68C209.481 572.992 209.657 573.328 209.841 573.688C210.329 574.6 210.677 575.38 210.885 576.028L209.877 577.636C208.381 577.244 207.053 576.696 205.893 575.992C205.533 575.768 205.177 575.536 204.825 575.296L205.629 573.832C206.845 574.672 207.957 575.288 208.965 575.68C208.773 575.208 208.485 574.64 208.101 573.976C207.717 573.304 207.437 572.8 207.261 572.464C207.093 572.12 206.961 571.78 206.865 571.444C207.361 570.828 207.993 570.22 208.761 569.62C209.465 569.068 210.137 568.64 210.777 568.336L213.093 569.884C212.941 570.564 212.593 571.408 212.049 572.416C211.913 572.672 211.793 572.876 211.689 573.028L210.249 572.2C210.569 571.688 210.905 570.94 211.257 569.956ZM214.308 575.764C216.268 575.508 217.972 574.992 219.42 574.216L219.684 575.428C218.452 576.204 217.084 576.768 215.58 577.12C215.076 577.232 214.58 577.3 214.092 577.324L212.604 575.944C212.604 575.376 212.64 574.936 212.712 574.624C213.024 573.304 213.788 572.24 215.004 571.432C215.548 571.072 216.1 570.804 216.66 570.628L218.58 572.056C218.54 572.24 218.428 572.532 218.244 572.932C217.94 573.604 217.7 574.064 217.524 574.312L216.012 573.352C216.444 572.808 216.716 572.352 216.828 571.984C216.06 572.312 215.436 572.84 214.956 573.568C214.524 574.224 214.308 574.956 214.308 575.764ZM222.627 576.244C221.995 576.74 221.267 577.1 220.443 577.324L218.955 575.944C218.955 575.312 219.051 574.692 219.243 574.084C219.435 573.476 219.719 572.928 220.095 572.44C220.471 571.952 220.935 571.548 221.487 571.228C222.047 570.9 222.691 570.704 223.419 570.64L224.211 571.852C224.307 571.7 224.511 571.436 224.823 571.06L225.999 572.068C225.207 573.1 224.551 574.204 224.031 575.38L223.995 575.404C224.459 575.284 225.003 575.08 225.627 574.792C226.251 574.496 226.647 574.304 226.815 574.216L227.079 575.428C226.607 575.772 225.823 576.216 224.727 576.76C224.295 576.976 223.903 577.148 223.551 577.276L222.627 576.244ZM220.635 575.596C221.491 575.364 222.271 574.796 222.975 573.892C223.183 573.436 223.339 572.868 223.443 572.188C222.619 572.268 221.943 572.632 221.415 573.28C220.895 573.92 220.635 574.692 220.635 575.596ZM227.214 571.624C227.598 571.104 228.078 570.564 228.654 570.004L229.77 570.868C229.682 571.236 229.606 571.504 229.542 571.672C230.574 571.56 231.318 571.448 231.774 571.336C232.23 571.224 232.626 571.124 232.962 571.036L233.298 572.464C232.97 572.56 232.626 572.644 232.266 572.716C231.714 573.588 231.254 574.512 230.886 575.488C232.214 575.032 233.194 574.608 233.826 574.216L234.09 575.428C233.354 575.908 232.39 576.4 231.198 576.904C230.814 577.064 230.446 577.204 230.094 577.324L228.822 576.052C229.342 574.86 229.898 573.832 230.49 572.968C229.93 573.016 229.434 573.048 229.002 573.064C228.874 573.304 228.53 573.904 227.97 574.864L227.082 575.428L225.942 574.756C226.606 574.036 227.054 573.532 227.286 573.244C227.518 572.956 227.718 572.708 227.886 572.5C227.654 572.244 227.43 571.952 227.214 571.624ZM238.374 575.236C239.67 574.86 240.578 574.52 241.098 574.216L241.362 575.428C240.722 575.908 240.006 576.344 239.214 576.736C238.934 576.88 238.69 576.988 238.482 577.06L237.894 576.412C237.67 577.428 237.406 578.24 237.102 578.848C236.814 579.408 236.406 579.968 235.878 580.528C234.998 580.504 234.034 580.364 232.986 580.108C232.658 580.028 232.358 579.94 232.086 579.844L232.014 577.864C232.55 577.392 233.146 576.992 233.802 576.664L233.106 576.16C233.178 575.104 233.726 573.744 234.75 572.08C235.07 571.56 235.422 571.04 235.806 570.52L237.054 571.468C235.654 573.436 234.898 574.884 234.786 575.812C235.21 575.748 235.55 575.648 235.806 575.512C236.318 575.24 236.726 574.844 237.03 574.324C237.718 572.948 238.334 571.876 238.878 571.108L240.15 572.104C239.366 573.304 238.774 574.348 238.374 575.236ZM233.226 578.74C233.962 578.908 234.57 579 235.05 579.016C235.57 578.576 235.978 577.884 236.274 576.94C234.97 577.468 233.954 578.068 233.226 578.74ZM175.262 581.956C174.406 582.412 173.63 583.02 172.934 583.78C173.022 584.06 173.15 584.36 173.318 584.68C173.486 584.992 173.662 585.328 173.846 585.688C174.334 586.6 174.682 587.38 174.89 588.028L173.882 589.636C172.386 589.244 171.058 588.696 169.898 587.992C169.538 587.768 169.182 587.536 168.83 587.296L169.634 585.832C170.85 586.672 171.962 587.288 172.97 587.68C172.778 587.208 172.49 586.64 172.106 585.976C171.722 585.304 171.442 584.8 171.266 584.464C171.098 584.12 170.966 583.78 170.87 583.444C171.366 582.828 171.998 582.22 172.766 581.62C173.47 581.068 174.142 580.64 174.782 580.336L177.098 581.884C176.946 582.564 176.598 583.408 176.054 584.416C175.918 584.672 175.798 584.876 175.694 585.028L174.254 584.2C174.574 583.688 174.91 582.94 175.262 581.956ZM183.942 587.428C182.854 588.156 181.738 588.788 180.594 589.324L179.094 588.268C178.846 587.564 178.682 586.884 178.602 586.228C178.194 587.156 177.79 588.188 177.39 589.324L175.962 588.4C176.658 586.528 177.614 584.52 178.83 582.376C179.214 581.704 179.606 581.056 180.006 580.432L181.242 581.356C180.434 582.548 179.678 583.892 178.974 585.388C180.046 584.388 181.158 583.476 182.31 582.652L183.534 583.792C182.062 584.728 180.926 585.484 180.126 586.06C180.262 586.444 180.466 586.912 180.738 587.464C181.754 587.12 182.734 586.704 183.678 586.216L183.942 587.428ZM186.027 586.684C185.651 586.684 185.355 586.656 185.139 586.6C185.011 586.912 184.931 587.3 184.899 587.764C186.275 587.684 187.603 587.376 188.883 586.84C189.315 586.664 189.731 586.456 190.131 586.216L190.383 587.428C189.639 587.9 188.759 588.316 187.743 588.676C186.663 589.06 185.643 589.276 184.683 589.324L183.195 587.944C183.195 586.84 183.495 585.832 184.095 584.92C184.527 584.288 185.015 583.788 185.559 583.42C186.111 583.052 186.639 582.788 187.143 582.628L189.171 584.308C188.971 585.14 188.591 585.744 188.031 586.12C187.471 586.496 186.803 586.684 186.027 586.684ZM185.643 585.52C186.107 585.52 186.511 585.392 186.855 585.136C187.255 584.832 187.455 584.408 187.455 583.864C186.647 584.304 186.043 584.856 185.643 585.52ZM189.316 587.944C189.66 586.704 190.272 585.3 191.152 583.732C191.736 582.692 192.392 581.768 193.12 580.96C193.488 580.552 193.868 580.208 194.26 579.928L196.288 581.356C196.016 583.54 195.024 585.08 193.312 585.976C192.76 586.264 192.144 586.492 191.464 586.66C191.272 587.132 191.124 587.536 191.02 587.872C192.012 587.736 192.784 587.584 193.336 587.416C194.416 587.096 195.316 586.696 196.036 586.216L196.288 587.428C195.112 588.244 193.776 588.812 192.28 589.132C191.784 589.236 191.292 589.3 190.804 589.324L189.316 587.944ZM192.16 585.16C192.888 584.816 193.468 584.32 193.9 583.672C194.332 583.024 194.62 582.264 194.764 581.392C194.132 581.96 193.456 582.864 192.736 584.104C192.528 584.456 192.336 584.808 192.16 585.16ZM198.391 586.684C198.015 586.684 197.719 586.656 197.503 586.6C197.375 586.912 197.295 587.3 197.263 587.764C198.639 587.684 199.967 587.376 201.247 586.84C201.679 586.664 202.095 586.456 202.495 586.216L202.747 587.428C202.003 587.9 201.123 588.316 200.107 588.676C199.027 589.06 198.007 589.276 197.047 589.324L195.559 587.944C195.559 586.84 195.859 585.832 196.459 584.92C196.891 584.288 197.379 583.788 197.923 583.42C198.475 583.052 199.003 582.788 199.507 582.628L201.535 584.308C201.335 585.14 200.955 585.744 200.395 586.12C199.835 586.496 199.167 586.684 198.391 586.684ZM198.007 585.52C198.471 585.52 198.875 585.392 199.219 585.136C199.619 584.832 199.819 584.408 199.819 583.864C199.011 584.304 198.407 584.856 198.007 585.52ZM205.424 583.696C206.168 583.616 206.716 583.528 207.068 583.432L207.344 584.728C206.64 584.904 205.744 585.008 204.656 585.04C204.168 586 203.804 586.872 203.564 587.656C204.212 587.544 204.904 587.384 205.64 587.176C206.376 586.96 207.116 586.64 207.86 586.216L208.112 587.428C207.384 587.932 206.552 588.364 205.616 588.724C204.696 589.076 203.88 589.276 203.168 589.324L201.68 587.944C202.152 586.376 202.956 584.724 204.092 582.988C204.444 582.444 204.82 581.92 205.22 581.416L206.288 582.4C205.976 582.832 205.688 583.264 205.424 583.696ZM212.135 587.644C211.367 588.532 210.355 589.092 209.099 589.324L207.395 587.896C207.395 587.128 207.547 586.368 207.851 585.616C208.235 584.672 208.867 583.908 209.747 583.324C210.355 582.916 211.015 582.664 211.727 582.568L213.635 584.2C213.499 585.064 213.267 585.816 212.939 586.456C213.515 586.424 214.167 586.344 214.895 586.216L215.159 587.428C214.119 587.86 213.303 588.152 212.711 588.304L212.135 587.644ZM209.003 587.692C209.915 587.484 210.675 586.92 211.283 586C211.539 585.608 211.723 585.232 211.835 584.872C211.947 584.512 212.007 584.224 212.015 584.008C211.367 584.096 210.751 584.44 210.167 585.04C209.439 585.784 209.051 586.668 209.003 587.692ZM217.174 584.824C217.974 584.192 218.802 583.648 219.658 583.192L221.11 584.332C220.846 585.468 220.382 586.492 219.718 587.404C220.518 587.132 221.426 586.736 222.442 586.216L222.694 587.428C222.366 587.644 221.866 587.92 221.194 588.256C220.042 588.824 219.246 589.18 218.806 589.324L217.318 588.268C217.798 587.692 218.198 587.124 218.518 586.564C218.846 585.996 219.058 585.5 219.154 585.076C218.13 585.556 217.154 586.116 216.226 586.756C215.858 587.636 215.546 588.492 215.29 589.324L213.862 588.4C214.134 587.48 214.558 586.444 215.134 585.292C215.654 584.26 216.198 583.388 216.766 582.676L217.978 583.552C217.698 583.928 217.43 584.352 217.174 584.824ZM224.001 589.42C223.425 589.036 222.921 588.672 222.489 588.328C222.097 587.984 221.669 587.572 221.205 587.092L222.441 586.216C223.001 586.8 223.413 587.192 223.677 587.392C223.941 587.584 224.177 587.748 224.385 587.884C224.609 587.86 224.973 587.784 225.477 587.656L223.485 585.772C223.301 585.58 223.157 585.408 223.053 585.256C223.357 584.712 223.881 584.148 224.625 583.564C225.321 583.02 225.985 582.656 226.617 582.472L228.537 584.02C228.401 584.564 228.081 585.284 227.577 586.18L226.293 585.22C226.461 584.972 226.609 584.704 226.737 584.416C226.865 584.128 226.941 583.936 226.965 583.84C226.517 584.008 226.057 584.312 225.585 584.752C225.417 584.912 225.265 585.076 225.129 585.244C225.281 585.476 225.513 585.72 225.825 585.976C226.353 586.432 226.797 586.824 227.157 587.152C228.045 586.848 228.797 586.536 229.413 586.216L229.665 587.428C229.025 587.884 228.125 588.308 226.965 588.7C225.893 589.06 224.905 589.3 224.001 589.42Z" fill="black"/>
</g>
<g clip-path="url(#clip7_7_28)">
<path d="M419 461H273C273 461 271 461 271 447C271 433 273 433 273 433H419C419 433 421 433 421 447C421 461 419 461 419 461Z" fill="#1E7A12"/>
<rect x="409" y="433" width="28" height="18" transform="rotate(90 409 433)" fill="#958945"/>
<rect x="300" y="433" width="28" height="18" transform="rotate(90 300 433)" fill="#958945"/>
<path d="M310.247 442.064C310.735 440.848 311.267 439.78 311.843 438.86C312.427 437.932 312.979 437.108 313.499 436.388C312.539 436.084 311.695 435.84 310.967 435.656L311.855 434.276C313.615 434.612 315.639 435.224 317.927 436.112L317.099 437.768C315.851 437.248 314.771 436.828 313.859 436.508L314.879 437.42C313.959 438.668 313.139 440.072 312.419 441.632C312.171 442.152 311.915 442.724 311.651 443.348L310.247 442.064ZM319.285 438.812C320.029 438.244 320.885 437.704 321.853 437.192L323.305 438.332C323.041 439.468 322.577 440.492 321.913 441.404C322.713 441.132 323.621 440.736 324.637 440.216L324.889 441.428C324.561 441.644 324.061 441.92 323.389 442.256C322.237 442.824 321.441 443.18 321.001 443.324L319.513 442.268C319.993 441.692 320.393 441.124 320.713 440.564C321.041 439.996 321.253 439.5 321.349 439.076C320.301 439.596 319.609 439.964 319.273 440.18C318.945 440.396 318.649 440.596 318.385 440.78C317.993 441.748 317.693 442.596 317.485 443.324L316.057 442.4C316.321 441.496 316.901 440.144 317.797 438.344C318.613 436.696 319.345 435.392 319.993 434.432L321.217 435.356C320.545 436.444 319.901 437.596 319.285 438.812ZM326.988 440.684C326.612 440.684 326.316 440.656 326.1 440.6C325.972 440.912 325.892 441.3 325.86 441.764C327.236 441.684 328.564 441.376 329.844 440.84C330.276 440.664 330.692 440.456 331.092 440.216L331.344 441.428C330.6 441.9 329.72 442.316 328.704 442.676C327.624 443.06 326.604 443.276 325.644 443.324L324.156 441.944C324.156 440.84 324.456 439.832 325.056 438.92C325.488 438.288 325.976 437.788 326.52 437.42C327.072 437.052 327.6 436.788 328.104 436.628L330.132 438.308C329.932 439.14 329.552 439.744 328.992 440.12C328.432 440.496 327.764 440.684 326.988 440.684ZM326.604 439.52C327.068 439.52 327.472 439.392 327.816 439.136C328.216 438.832 328.416 438.408 328.416 437.864C327.608 438.304 327.004 438.856 326.604 439.52ZM336.881 441.32C337.713 441.496 338.777 441.648 340.073 441.776L339.557 443.444C338.461 443.348 337.673 443.256 337.193 443.168C336.721 443.08 336.349 443.008 336.077 442.952L334.637 441.644C335.613 439.612 337.049 437.308 338.945 434.732L340.181 435.98C339.133 437.42 338.033 439.2 336.881 441.32ZM345.83 441.644C345.062 442.532 344.05 443.092 342.794 443.324L341.09 441.896C341.09 441.128 341.242 440.368 341.546 439.616C341.93 438.672 342.562 437.908 343.442 437.324C344.05 436.916 344.71 436.664 345.422 436.568L347.33 438.2C347.194 439.064 346.962 439.816 346.634 440.456C347.21 440.424 347.862 440.344 348.59 440.216L348.854 441.428C347.814 441.86 346.998 442.152 346.406 442.304L345.83 441.644ZM342.698 441.692C343.61 441.484 344.37 440.92 344.978 440C345.234 439.608 345.418 439.232 345.53 438.872C345.642 438.512 345.702 438.224 345.71 438.008C345.062 438.096 344.446 438.44 343.862 439.04C343.134 439.784 342.746 440.668 342.698 441.692ZM348.985 437.624C349.369 437.104 349.849 436.564 350.425 436.004L351.541 436.868C351.453 437.236 351.377 437.504 351.313 437.672C352.345 437.56 353.089 437.448 353.545 437.336C354.001 437.224 354.397 437.124 354.733 437.036L355.069 438.464C354.741 438.56 354.397 438.644 354.037 438.716C353.485 439.588 353.025 440.512 352.657 441.488C353.985 441.032 354.965 440.608 355.597 440.216L355.861 441.428C355.125 441.908 354.161 442.4 352.969 442.904C352.585 443.064 352.217 443.204 351.865 443.324L350.593 442.052C351.113 440.86 351.669 439.832 352.261 438.968C351.701 439.016 351.205 439.048 350.773 439.064C350.645 439.304 350.301 439.904 349.741 440.864L348.853 441.428L347.713 440.756C348.377 440.036 348.825 439.532 349.057 439.244C349.289 438.956 349.489 438.708 349.657 438.5C349.425 438.244 349.201 437.952 348.985 437.624ZM358.801 442.244C358.169 442.74 357.441 443.1 356.617 443.324L355.129 441.944C355.129 441.312 355.225 440.692 355.417 440.084C355.609 439.476 355.893 438.928 356.269 438.44C356.645 437.952 357.109 437.548 357.661 437.228C358.221 436.9 358.865 436.704 359.593 436.64L360.253 437.648C360.877 436.44 361.533 435.368 362.221 434.432L363.385 435.44C362.593 436.448 361.773 437.88 360.925 439.736C360.669 440.296 360.441 440.844 360.241 441.38C361.097 441.124 361.993 440.736 362.929 440.216L363.193 441.428C362.649 441.836 361.769 442.336 360.553 442.928C360.209 443.088 359.933 443.204 359.725 443.276L358.801 442.244ZM356.809 441.596C357.665 441.364 358.445 440.796 359.149 439.892C359.357 439.436 359.513 438.868 359.617 438.188C358.793 438.268 358.117 438.632 357.589 439.28C357.069 439.92 356.809 440.692 356.809 441.596ZM371.553 441.644C370.785 442.532 369.773 443.092 368.517 443.324L366.813 441.896C366.813 441.128 366.965 440.368 367.269 439.616C367.653 438.672 368.285 437.908 369.165 437.324C369.773 436.916 370.433 436.664 371.145 436.568L373.053 438.2C372.917 439.064 372.685 439.816 372.357 440.456C372.933 440.424 373.585 440.344 374.313 440.216L374.577 441.428C373.537 441.86 372.721 442.152 372.129 442.304L371.553 441.644ZM368.421 441.692C369.333 441.484 370.093 440.92 370.701 440C370.957 439.608 371.141 439.232 371.253 438.872C371.365 438.512 371.425 438.224 371.433 438.008C370.785 438.096 370.169 438.44 369.585 439.04C368.857 439.784 368.469 440.668 368.421 441.692ZM372.872 445.376C373.256 444.12 373.8 442.74 374.504 441.236C374.104 440.836 373.72 440.42 373.352 439.988L374.108 439.064L374.612 439.568C374.756 439.712 374.896 439.844 375.032 439.964C375.416 438.62 375.996 437.384 376.772 436.256C377.468 435.24 378.236 434.44 379.076 433.856L381.104 435.308C380.896 436.452 380.516 437.508 379.964 438.476C379.42 439.444 378.728 440.268 377.888 440.948C378.928 440.772 379.948 440.528 380.948 440.216L381.2 441.428C379.776 441.884 378.204 442.284 376.484 442.628L375.752 442.16C375.168 443.584 374.688 445 374.312 446.408L372.872 445.376ZM376.172 440.84C376.988 440.152 377.732 439.26 378.404 438.164C379.052 437.092 379.444 436.156 379.58 435.356C377.892 437.044 376.756 438.872 376.172 440.84ZM319.59 449.696C320.334 449.616 320.882 449.528 321.234 449.432L321.51 450.728C320.806 450.904 319.91 451.008 318.822 451.04C318.334 452 317.97 452.872 317.73 453.656C318.378 453.544 319.07 453.384 319.806 453.176C320.542 452.96 321.282 452.64 322.026 452.216L322.278 453.428C321.55 453.932 320.718 454.364 319.782 454.724C318.862 455.076 318.046 455.276 317.334 455.324L315.846 453.944C316.318 452.376 317.122 450.724 318.258 448.988C318.61 448.444 318.986 447.92 319.386 447.416L320.454 448.4C320.142 448.832 319.854 449.264 319.59 449.696ZM324.225 450.812C324.969 450.244 325.825 449.704 326.793 449.192L328.245 450.332C327.981 451.468 327.517 452.492 326.853 453.404C327.653 453.132 328.561 452.736 329.577 452.216L329.829 453.428C329.501 453.644 329.001 453.92 328.329 454.256C327.177 454.824 326.381 455.18 325.941 455.324L324.453 454.268C324.933 453.692 325.333 453.124 325.653 452.564C325.981 451.996 326.193 451.5 326.289 451.076C325.241 451.596 324.549 451.964 324.213 452.18C323.885 452.396 323.589 452.596 323.325 452.78C322.933 453.748 322.633 454.596 322.425 455.324L320.997 454.4C321.261 453.496 321.841 452.144 322.737 450.344C323.553 448.696 324.285 447.392 324.933 446.432L326.157 447.356C325.485 448.444 324.841 449.596 324.225 450.812ZM331.928 452.684C331.552 452.684 331.256 452.656 331.04 452.6C330.912 452.912 330.832 453.3 330.8 453.764C332.176 453.684 333.504 453.376 334.784 452.84C335.216 452.664 335.632 452.456 336.032 452.216L336.284 453.428C335.54 453.9 334.66 454.316 333.644 454.676C332.564 455.06 331.544 455.276 330.584 455.324L329.096 453.944C329.096 452.84 329.396 451.832 329.996 450.92C330.428 450.288 330.916 449.788 331.46 449.42C332.012 449.052 332.54 448.788 333.044 448.628L335.072 450.308C334.872 451.14 334.492 451.744 333.932 452.12C333.372 452.496 332.704 452.684 331.928 452.684ZM331.544 451.52C332.008 451.52 332.412 451.392 332.756 451.136C333.156 450.832 333.356 450.408 333.356 449.864C332.548 450.304 331.944 450.856 331.544 451.52ZM344.376 452.444C344.856 453.212 345.432 453.952 346.104 454.664L344.508 455.696C343.772 454.744 343.064 453.608 342.384 452.288C341.832 453.24 341.332 454.26 340.884 455.348L339.528 454.1C340.064 452.916 340.544 451.976 340.968 451.28C341.656 450.136 342.372 449.124 343.116 448.244C342.564 448.148 342.064 448.1 341.616 448.1L342.132 446.672C343.636 446.72 344.944 446.916 346.056 447.26C346.472 447.388 346.892 447.544 347.316 447.728L348.252 449.792C347.436 450.872 346.144 451.756 344.376 452.444ZM342.864 451.484C343.952 451.068 344.92 450.544 345.768 449.912C346.056 449.704 346.304 449.492 346.512 449.276C345.752 448.876 344.744 448.556 343.488 448.316L344.52 449.156C343.88 449.972 343.328 450.748 342.864 451.484ZM351.369 448.208C351.185 448.016 351.093 447.784 351.093 447.512C351.093 447.24 351.185 447.012 351.369 446.828C351.561 446.636 351.793 446.54 352.065 446.54C352.337 446.54 352.565 446.636 352.749 446.828C352.941 447.012 353.037 447.24 353.037 447.512C353.037 447.784 352.941 448.016 352.749 448.208C352.565 448.392 352.337 448.484 352.065 448.484C351.793 448.484 351.561 448.392 351.369 448.208ZM349.557 453.488C350.373 453.24 351.353 452.816 352.497 452.216L352.749 453.428C351.973 453.932 351.037 454.424 349.941 454.904C349.573 455.064 349.213 455.204 348.861 455.324L347.481 454.052C347.873 452.98 348.577 451.644 349.593 450.044C349.897 449.564 350.193 449.144 350.481 448.784L351.669 449.66C351.085 450.46 350.517 451.424 349.965 452.552C349.805 452.888 349.669 453.2 349.557 453.488ZM354.778 450.824C355.578 450.192 356.406 449.648 357.262 449.192L358.714 450.332C358.45 451.468 357.986 452.492 357.322 453.404C358.122 453.132 359.03 452.736 360.046 452.216L360.298 453.428C359.97 453.644 359.47 453.92 358.798 454.256C357.646 454.824 356.85 455.18 356.41 455.324L354.922 454.268C355.402 453.692 355.802 453.124 356.122 452.564C356.45 451.996 356.662 451.5 356.758 451.076C355.734 451.556 354.758 452.116 353.83 452.756C353.462 453.636 353.15 454.492 352.894 455.324L351.465 454.4C351.737 453.48 352.161 452.444 352.738 451.292C353.258 450.26 353.802 449.388 354.37 448.676L355.582 449.552C355.302 449.928 355.034 450.352 354.778 450.824ZM358.484 455.864C358.98 455.416 359.556 455.028 360.212 454.7L359.54 454.064C359.54 453.432 359.644 452.816 359.852 452.216C360.052 451.616 360.348 451.08 360.74 450.608C361.132 450.128 361.612 449.732 362.18 449.42C362.748 449.108 363.396 448.92 364.124 448.856L364.796 449.984C365.044 449.624 365.276 449.316 365.492 449.06L366.656 450.068C366.192 450.684 365.696 451.464 365.168 452.408C365.008 452.696 364.868 452.976 364.748 453.248C365.972 452.896 366.884 452.552 367.484 452.216L367.736 453.428C367.08 453.916 366.368 454.352 365.6 454.736C365.32 454.88 365.076 454.988 364.868 455.06L364.352 454.484C364.04 455.876 363.592 456.96 363.008 457.736C362.808 458.008 362.588 458.272 362.348 458.528C361.444 458.504 360.48 458.364 359.456 458.108C359.128 458.028 358.824 457.94 358.544 457.844L358.484 455.864ZM361.22 453.764C361.692 453.628 362.052 453.488 362.3 453.344C362.764 453.056 363.164 452.692 363.5 452.252C363.74 451.724 363.916 451.112 364.028 450.416C363.212 450.496 362.536 450.848 362 451.472C361.48 452.088 361.22 452.852 361.22 453.764ZM359.696 456.74C360.48 456.924 361.088 457.016 361.52 457.016C362.016 456.592 362.424 455.9 362.744 454.94C361.488 455.444 360.472 456.044 359.696 456.74ZM369.046 455.42C368.47 455.036 367.966 454.672 367.534 454.328C367.142 453.984 366.714 453.572 366.25 453.092L367.486 452.216C368.046 452.8 368.458 453.192 368.722 453.392C368.986 453.584 369.222 453.748 369.43 453.884C369.654 453.86 370.018 453.784 370.522 453.656L368.53 451.772C368.346 451.58 368.202 451.408 368.098 451.256C368.402 450.712 368.926 450.148 369.67 449.564C370.366 449.02 371.03 448.656 371.662 448.472L373.582 450.02C373.446 450.564 373.126 451.284 372.622 452.18L371.338 451.22C371.506 450.972 371.654 450.704 371.782 450.416C371.91 450.128 371.986 449.936 372.01 449.84C371.562 450.008 371.102 450.312 370.63 450.752C370.462 450.912 370.31 451.076 370.174 451.244C370.326 451.476 370.558 451.72 370.87 451.976C371.398 452.432 371.842 452.824 372.202 453.152C373.09 452.848 373.842 452.536 374.458 452.216L374.71 453.428C374.07 453.884 373.17 454.308 372.01 454.7C370.938 455.06 369.95 455.3 369.046 455.42Z" fill="black"/>
</g>
<g clip-path="url(#clip8_7_28)">
<path d="M258 567H112C112 567 110 567 110 553C110 539 112 539 112 539H258C258 539 260 539 260 553C260 567 258 567 258 567Z" fill="#B1781B"/>
<rect x="248" y="539" width="28" height="18" transform="rotate(90 248 539)" fill="#DFA740"/>
<rect x="139" y="539" width="28" height="18" transform="rotate(90 139 539)" fill="#DFA740"/>
<path d="M153.373 547.664C153.749 547.912 154.129 548.196 154.513 548.516L154.273 550.028C153.185 550.724 151.841 551.156 150.241 551.324C149.785 551.372 149.353 551.396 148.945 551.396L147.589 550.172C148.613 547.908 149.825 545.928 151.225 544.232C150.609 544.144 150.121 544.1 149.761 544.1L150.277 542.672C151.237 542.712 152.161 542.808 153.049 542.96C153.937 543.104 154.805 543.36 155.653 543.728L156.565 545.756C155.709 546.652 154.645 547.288 153.373 547.664ZM151.393 546.836C152.193 546.644 152.793 546.452 153.193 546.26C153.833 545.964 154.365 545.628 154.789 545.252C153.949 544.828 152.869 544.508 151.549 544.292L152.617 545.156C152.025 545.924 151.617 546.484 151.393 546.836ZM149.689 549.764C150.969 549.716 152.029 549.464 152.869 549.008C152.589 548.688 152.089 548.36 151.369 548.024C151.169 547.936 150.977 547.852 150.793 547.772C150.369 548.46 150.001 549.124 149.689 549.764ZM159.873 550.244C159.241 550.74 158.513 551.1 157.689 551.324L156.201 549.944C156.201 549.312 156.297 548.692 156.489 548.084C156.681 547.476 156.965 546.928 157.341 546.44C157.717 545.952 158.181 545.548 158.733 545.228C159.293 544.9 159.937 544.704 160.665 544.64L161.457 545.852C161.553 545.7 161.757 545.436 162.069 545.06L163.245 546.068C162.453 547.1 161.797 548.204 161.277 549.38L161.241 549.404C161.705 549.284 162.249 549.08 162.873 548.792C163.497 548.496 163.893 548.304 164.061 548.216L164.325 549.428C163.853 549.772 163.069 550.216 161.973 550.76C161.541 550.976 161.149 551.148 160.797 551.276L159.873 550.244ZM157.881 549.596C158.737 549.364 159.517 548.796 160.221 547.892C160.429 547.436 160.585 546.868 160.689 546.188C159.865 546.268 159.189 546.632 158.661 547.28C158.141 547.92 157.881 548.692 157.881 549.596ZM165.324 549.764C167.284 549.508 168.988 548.992 170.436 548.216L170.7 549.428C169.468 550.204 168.1 550.768 166.596 551.12C166.092 551.232 165.596 551.3 165.108 551.324L163.62 549.944C163.62 549.376 163.656 548.936 163.728 548.624C164.04 547.304 164.804 546.24 166.02 545.432C166.564 545.072 167.116 544.804 167.676 544.628L169.596 546.056C169.556 546.24 169.444 546.532 169.26 546.932C168.956 547.604 168.716 548.064 168.54 548.312L167.028 547.352C167.46 546.808 167.732 546.352 167.844 545.984C167.076 546.312 166.452 546.84 165.972 547.568C165.54 548.224 165.324 548.956 165.324 549.764ZM177.327 549.428C176.239 550.156 175.123 550.788 173.979 551.324L172.479 550.268C172.231 549.564 172.067 548.884 171.987 548.228C171.579 549.156 171.175 550.188 170.775 551.324L169.347 550.4C170.043 548.528 170.999 546.52 172.215 544.376C172.599 543.704 172.991 543.056 173.391 542.432L174.627 543.356C173.819 544.548 173.063 545.892 172.359 547.388C173.431 546.388 174.543 545.476 175.695 544.652L176.919 545.792C175.447 546.728 174.311 547.484 173.511 548.06C173.647 548.444 173.851 548.912 174.123 549.464C175.139 549.12 176.119 548.704 177.063 548.216L177.327 549.428ZM181.48 550.064C181.968 548.848 182.5 547.78 183.076 546.86C183.66 545.932 184.212 545.108 184.732 544.388C183.772 544.084 182.928 543.84 182.2 543.656L183.088 542.276C184.848 542.612 186.872 543.224 189.16 544.112L188.332 545.768C187.084 545.248 186.004 544.828 185.092 544.508L186.112 545.42C185.192 546.668 184.372 548.072 183.652 549.632C183.404 550.152 183.148 550.724 182.884 551.348L181.48 550.064ZM192.594 549.644C191.826 550.532 190.814 551.092 189.558 551.324L187.854 549.896C187.854 549.128 188.006 548.368 188.31 547.616C188.694 546.672 189.326 545.908 190.206 545.324C190.814 544.916 191.474 544.664 192.186 544.568L194.094 546.2C193.958 547.064 193.726 547.816 193.398 548.456C193.974 548.424 194.626 548.344 195.354 548.216L195.618 549.428C194.578 549.86 193.762 550.152 193.17 550.304L192.594 549.644ZM189.462 549.692C190.374 549.484 191.134 548.92 191.742 548C191.998 547.608 192.182 547.232 192.294 546.872C192.406 546.512 192.466 546.224 192.474 546.008C191.826 546.096 191.21 546.44 190.626 547.04C189.898 547.784 189.51 548.668 189.462 549.692ZM199.773 550.064C200.261 548.848 200.793 547.78 201.369 546.86C201.953 545.932 202.505 545.108 203.025 544.388C202.065 544.084 201.221 543.84 200.493 543.656L201.381 542.276C203.141 542.612 205.165 543.224 207.453 544.112L206.625 545.768C205.377 545.248 204.297 544.828 203.385 544.508L204.405 545.42C203.485 546.668 202.665 548.072 201.945 549.632C201.697 550.152 201.441 550.724 201.177 551.348L199.773 550.064ZM208.811 546.812C209.555 546.244 210.411 545.704 211.379 545.192L212.831 546.332C212.567 547.468 212.103 548.492 211.439 549.404C212.239 549.132 213.147 548.736 214.163 548.216L214.415 549.428C214.087 549.644 213.587 549.92 212.915 550.256C211.763 550.824 210.967 551.18 210.527 551.324L209.039 550.268C209.519 549.692 209.919 549.124 210.239 548.564C210.567 547.996 210.779 547.5 210.875 547.076C209.827 547.596 209.135 547.964 208.799 548.18C208.471 548.396 208.175 548.596 207.911 548.78C207.519 549.748 207.219 550.596 207.011 551.324L205.583 550.4C205.847 549.496 206.427 548.144 207.323 546.344C208.139 544.696 208.871 543.392 209.519 542.432L210.743 543.356C210.071 544.444 209.427 545.596 208.811 546.812ZM216.514 548.684C216.138 548.684 215.842 548.656 215.626 548.6C215.498 548.912 215.418 549.3 215.386 549.764C216.762 549.684 218.09 549.376 219.37 548.84C219.802 548.664 220.218 548.456 220.618 548.216L220.87 549.428C220.126 549.9 219.246 550.316 218.23 550.676C217.15 551.06 216.13 551.276 215.17 551.324L213.682 549.944C213.682 548.84 213.982 547.832 214.582 546.92C215.014 546.288 215.502 545.788 216.046 545.42C216.598 545.052 217.126 544.788 217.63 544.628L219.658 546.308C219.458 547.14 219.078 547.744 218.518 548.12C217.958 548.496 217.29 548.684 216.514 548.684ZM216.13 547.52C216.594 547.52 216.998 547.392 217.342 547.136C217.742 546.832 217.942 546.408 217.942 545.864C217.134 546.304 216.53 546.856 216.13 547.52ZM163.461 562.088C164.093 560.696 164.989 559.164 166.149 557.492C166.493 556.996 166.813 556.568 167.109 556.208C166.549 556.12 166.089 556.076 165.729 556.076L166.281 554.588C168.417 554.66 170.357 555.044 172.101 555.74L171.417 557.48C170.257 556.968 168.945 556.564 167.481 556.268L168.513 557.12C168.137 557.608 167.733 558.164 167.301 558.788C167.789 558.884 168.581 559.104 169.677 559.448L169.089 560.912L167.625 560.432C167.257 560.32 166.869 560.212 166.461 560.108C165.773 561.268 165.229 562.348 164.829 563.348L163.461 562.088ZM174.333 562.1C173.829 562.58 173.181 562.988 172.389 563.324L170.793 561.944C170.905 561.04 171.185 560.148 171.633 559.268C172.081 558.388 172.657 557.472 173.361 556.52L174.597 557.468C173.477 558.98 172.769 560.356 172.473 561.596C172.481 561.596 172.553 561.576 172.689 561.536C172.833 561.488 173.017 561.4 173.241 561.272C173.809 560.952 174.333 560.492 174.813 559.892C175.373 558.756 175.909 557.828 176.421 557.108L177.705 558.104C176.953 559.208 176.341 560.3 175.869 561.38L175.821 561.404C176.333 561.268 176.889 561.06 177.489 560.78C178.097 560.5 178.485 560.312 178.653 560.216L178.905 561.428C178.409 561.788 177.629 562.232 176.565 562.76C176.133 562.976 175.741 563.148 175.389 563.276L174.333 562.1ZM181.576 557.696C182.32 557.616 182.868 557.528 183.22 557.432L183.496 558.728C182.792 558.904 181.896 559.008 180.808 559.04C180.32 560 179.956 560.872 179.716 561.656C180.364 561.544 181.056 561.384 181.792 561.176C182.528 560.96 183.268 560.64 184.012 560.216L184.264 561.428C183.536 561.932 182.704 562.364 181.768 562.724C180.848 563.076 180.032 563.276 179.32 563.324L177.832 561.944C178.304 560.376 179.108 558.724 180.244 556.988C180.596 556.444 180.972 555.92 181.372 555.416L182.44 556.4C182.128 556.832 181.84 557.264 181.576 557.696ZM186.895 562.1C186.391 562.58 185.743 562.988 184.951 563.324L183.355 561.944C183.467 561.04 183.747 560.148 184.195 559.268C184.643 558.388 185.219 557.472 185.923 556.52L187.159 557.468C186.039 558.98 185.331 560.356 185.035 561.596C185.043 561.596 185.115 561.576 185.251 561.536C185.395 561.488 185.579 561.4 185.803 561.272C186.371 560.952 186.895 560.492 187.375 559.892C187.935 558.756 188.471 557.828 188.983 557.108L190.267 558.104C189.515 559.208 188.903 560.3 188.431 561.38L188.383 561.404C188.895 561.268 189.451 561.06 190.051 560.78C190.659 560.5 191.047 560.312 191.215 560.216L191.467 561.428C190.971 561.788 190.191 562.232 189.127 562.76C188.695 562.976 188.303 563.148 187.951 563.276L186.895 562.1ZM191.606 557.624C191.99 557.104 192.47 556.564 193.046 556.004L194.162 556.868C194.074 557.236 193.998 557.504 193.934 557.672C194.966 557.56 195.71 557.448 196.166 557.336C196.622 557.224 197.018 557.124 197.354 557.036L197.69 558.464C197.362 558.56 197.018 558.644 196.658 558.716C196.106 559.588 195.646 560.512 195.278 561.488C196.606 561.032 197.586 560.608 198.218 560.216L198.482 561.428C197.746 561.908 196.782 562.4 195.59 562.904C195.206 563.064 194.838 563.204 194.486 563.324L193.214 562.052C193.734 560.86 194.29 559.832 194.882 558.968C194.322 559.016 193.826 559.048 193.394 559.064C193.266 559.304 192.922 559.904 192.362 560.864L191.474 561.428L190.334 560.756C190.998 560.036 191.446 559.532 191.678 559.244C191.91 558.956 192.11 558.708 192.278 558.5C192.046 558.244 191.822 557.952 191.606 557.624ZM200.57 560.684C200.194 560.684 199.898 560.656 199.682 560.6C199.554 560.912 199.474 561.3 199.442 561.764C200.818 561.684 202.146 561.376 203.426 560.84C203.858 560.664 204.274 560.456 204.674 560.216L204.926 561.428C204.182 561.9 203.302 562.316 202.286 562.676C201.206 563.06 200.186 563.276 199.226 563.324L197.738 561.944C197.738 560.84 198.038 559.832 198.638 558.92C199.07 558.288 199.558 557.788 200.102 557.42C200.654 557.052 201.182 556.788 201.686 556.628L203.714 558.308C203.514 559.14 203.134 559.744 202.574 560.12C202.014 560.496 201.346 560.684 200.57 560.684ZM200.186 559.52C200.65 559.52 201.054 559.392 201.398 559.136C201.798 558.832 201.998 558.408 201.998 557.864C201.19 558.304 200.586 558.856 200.186 559.52Z" fill="black"/>
</g>
<g clip-path="url(#clip9_7_28)">
<path d="M548 623H402C402 623 400 623 400 609C400 595 402 595 402 595H548C548 595 550 595 550 609C550 623 548 623 548 623Z" fill="#1BB166"/>
<rect x="538" y="595" width="28" height="18" transform="rotate(90 538 595)" fill="#4085DF"/>
<rect x="429" y="595" width="28" height="18" transform="rotate(90 429 595)" fill="#4085DF"/>
<path d="M449.267 604.064C449.755 602.848 450.287 601.78 450.863 600.86C451.447 599.932 451.999 599.108 452.519 598.388C451.559 598.084 450.715 597.84 449.987 597.656L450.875 596.276C452.635 596.612 454.659 597.224 456.947 598.112L456.119 599.768C454.871 599.248 453.791 598.828 452.879 598.508L453.899 599.42C452.979 600.668 452.159 602.072 451.439 603.632C451.191 604.152 450.935 604.724 450.671 605.348L449.267 604.064ZM458.305 600.812C459.049 600.244 459.905 599.704 460.873 599.192L462.325 600.332C462.061 601.468 461.597 602.492 460.933 603.404C461.733 603.132 462.641 602.736 463.657 602.216L463.909 603.428C463.581 603.644 463.081 603.92 462.409 604.256C461.257 604.824 460.461 605.18 460.021 605.324L458.533 604.268C459.013 603.692 459.413 603.124 459.733 602.564C460.061 601.996 460.273 601.5 460.369 601.076C459.321 601.596 458.629 601.964 458.293 602.18C457.965 602.396 457.669 602.596 457.405 602.78C457.013 603.748 456.713 604.596 456.505 605.324L455.077 604.4C455.341 603.496 455.921 602.144 456.817 600.344C457.633 598.696 458.365 597.392 459.013 596.432L460.237 597.356C459.565 598.444 458.921 599.596 458.305 600.812ZM464.052 599.624C464.436 599.104 464.916 598.564 465.492 598.004L466.608 598.868C466.52 599.236 466.444 599.504 466.38 599.672C467.412 599.56 468.156 599.448 468.612 599.336C469.068 599.224 469.464 599.124 469.8 599.036L470.136 600.464C469.808 600.56 469.464 600.644 469.104 600.716C468.552 601.588 468.092 602.512 467.724 603.488C469.052 603.032 470.032 602.608 470.664 602.216L470.928 603.428C470.192 603.908 469.228 604.4 468.036 604.904C467.652 605.064 467.284 605.204 466.932 605.324L465.66 604.052C466.18 602.86 466.736 601.832 467.328 600.968C466.768 601.016 466.272 601.048 465.84 601.064C465.712 601.304 465.368 601.904 464.808 602.864L463.92 603.428L462.78 602.756C463.444 602.036 463.892 601.532 464.124 601.244C464.356 600.956 464.556 600.708 464.724 600.5C464.492 600.244 464.268 599.952 464.052 599.624ZM473.52 598.208C473.336 598.016 473.244 597.784 473.244 597.512C473.244 597.24 473.336 597.012 473.52 596.828C473.712 596.636 473.944 596.54 474.216 596.54C474.488 596.54 474.716 596.636 474.9 596.828C475.092 597.012 475.188 597.24 475.188 597.512C475.188 597.784 475.092 598.016 474.9 598.208C474.716 598.392 474.488 598.484 474.216 598.484C473.944 598.484 473.712 598.392 473.52 598.208ZM471.708 603.488C472.524 603.24 473.504 602.816 474.648 602.216L474.9 603.428C474.124 603.932 473.188 604.424 472.092 604.904C471.724 605.064 471.364 605.204 471.012 605.324L469.632 604.052C470.024 602.98 470.728 601.644 471.744 600.044C472.048 599.564 472.344 599.144 472.632 598.784L473.82 599.66C473.236 600.46 472.668 601.424 472.116 602.552C471.956 602.888 471.82 603.2 471.708 603.488ZM473.832 603.944C474.176 602.704 474.788 601.3 475.668 599.732C476.252 598.692 476.908 597.768 477.636 596.96C478.004 596.552 478.384 596.208 478.776 595.928L480.804 597.356C480.532 599.54 479.54 601.08 477.828 601.976C477.276 602.264 476.66 602.492 475.98 602.66C475.788 603.132 475.64 603.536 475.536 603.872C476.528 603.736 477.3 603.584 477.852 603.416C478.932 603.096 479.832 602.696 480.552 602.216L480.804 603.428C479.628 604.244 478.292 604.812 476.796 605.132C476.3 605.236 475.808 605.3 475.32 605.324L473.832 603.944ZM476.676 601.16C477.404 600.816 477.984 600.32 478.416 599.672C478.848 599.024 479.136 598.264 479.28 597.392C478.648 597.96 477.972 598.864 477.252 600.104C477.044 600.456 476.852 600.808 476.676 601.16ZM479.738 603.944C480.082 602.704 480.694 601.3 481.574 599.732C482.158 598.692 482.814 597.768 483.542 596.96C483.91 596.552 484.29 596.208 484.682 595.928L486.71 597.356C486.438 599.54 485.446 601.08 483.734 601.976C483.182 602.264 482.566 602.492 481.886 602.66C481.694 603.132 481.546 603.536 481.442 603.872C482.434 603.736 483.206 603.584 483.758 603.416C484.838 603.096 485.738 602.696 486.458 602.216L486.71 603.428C485.534 604.244 484.198 604.812 482.702 605.132C482.206 605.236 481.714 605.3 481.226 605.324L479.738 603.944ZM482.582 601.16C483.31 600.816 483.89 600.32 484.322 599.672C484.754 599.024 485.042 598.264 485.186 597.392C484.554 597.96 483.878 598.864 483.158 600.104C482.95 600.456 482.758 600.808 482.582 601.16ZM488.812 602.684C488.436 602.684 488.14 602.656 487.924 602.6C487.796 602.912 487.716 603.3 487.684 603.764C489.06 603.684 490.388 603.376 491.668 602.84C492.1 602.664 492.516 602.456 492.916 602.216L493.168 603.428C492.424 603.9 491.544 604.316 490.528 604.676C489.448 605.06 488.428 605.276 487.468 605.324L485.98 603.944C485.98 602.84 486.28 601.832 486.88 600.92C487.312 600.288 487.8 599.788 488.344 599.42C488.896 599.052 489.424 598.788 489.928 598.628L491.956 600.308C491.756 601.14 491.376 601.744 490.816 602.12C490.256 602.496 489.588 602.684 488.812 602.684ZM488.428 601.52C488.892 601.52 489.296 601.392 489.64 601.136C490.04 600.832 490.24 600.408 490.24 599.864C489.432 600.304 488.828 600.856 488.428 601.52ZM493.313 599.624C493.697 599.104 494.177 598.564 494.753 598.004L495.869 598.868C495.781 599.236 495.705 599.504 495.641 599.672C496.673 599.56 497.417 599.448 497.873 599.336C498.329 599.224 498.725 599.124 499.061 599.036L499.397 600.464C499.069 600.56 498.725 600.644 498.365 600.716C497.813 601.588 497.353 602.512 496.985 603.488C498.313 603.032 499.293 602.608 499.925 602.216L500.189 603.428C499.453 603.908 498.489 604.4 497.297 604.904C496.913 605.064 496.545 605.204 496.193 605.324L494.921 604.052C495.441 602.86 495.997 601.832 496.589 600.968C496.029 601.016 495.533 601.048 495.101 601.064C494.973 601.304 494.629 601.904 494.069 602.864L493.181 603.428L492.041 602.756C492.705 602.036 493.153 601.532 493.385 601.244C493.617 600.956 493.817 600.708 493.985 600.5C493.753 600.244 493.529 599.952 493.313 599.624Z" fill="black"/>
</g>
<g clip-path="url(#clip10_7_28)">
<path d="M383 433H237C237 433 235 433 235 419C235 405 237 405 237 405H383C383 405 385 405 385 419C385 433 383 433 383 433Z" fill="#1B84B1"/>
<rect x="373" y="405" width="28" height="18" transform="rotate(90 373 405)" fill="#712AAE"/>
<rect x="264" y="405" width="28" height="18" transform="rotate(90 264 405)" fill="#712AAE"/>
<path d="M271.968 414.064C272.456 412.848 272.988 411.78 273.564 410.86C274.148 409.932 274.7 409.108 275.22 408.388C274.26 408.084 273.416 407.84 272.688 407.656L273.576 406.276C275.336 406.612 277.36 407.224 279.648 408.112L278.82 409.768C277.572 409.248 276.492 408.828 275.58 408.508L276.6 409.42C275.68 410.668 274.86 412.072 274.14 413.632C273.892 414.152 273.636 414.724 273.372 415.348L271.968 414.064ZM281.006 410.812C281.75 410.244 282.606 409.704 283.574 409.192L285.026 410.332C284.762 411.468 284.298 412.492 283.634 413.404C284.434 413.132 285.342 412.736 286.358 412.216L286.61 413.428C286.282 413.644 285.782 413.92 285.11 414.256C283.958 414.824 283.162 415.18 282.722 415.324L281.234 414.268C281.714 413.692 282.114 413.124 282.434 412.564C282.762 411.996 282.974 411.5 283.07 411.076C282.022 411.596 281.33 411.964 280.994 412.18C280.666 412.396 280.37 412.596 280.106 412.78C279.714 413.748 279.414 414.596 279.206 415.324L277.778 414.4C278.042 413.496 278.622 412.144 279.518 410.344C280.334 408.696 281.066 407.392 281.714 406.432L282.938 407.356C282.266 408.444 281.622 409.596 281.006 410.812ZM288.709 412.684C288.333 412.684 288.037 412.656 287.821 412.6C287.693 412.912 287.613 413.3 287.581 413.764C288.957 413.684 290.285 413.376 291.565 412.84C291.997 412.664 292.413 412.456 292.813 412.216L293.065 413.428C292.321 413.9 291.441 414.316 290.425 414.676C289.345 415.06 288.325 415.276 287.365 415.324L285.877 413.944C285.877 412.84 286.177 411.832 286.777 410.92C287.209 410.288 287.697 409.788 288.241 409.42C288.793 409.052 289.321 408.788 289.825 408.628L291.853 410.308C291.653 411.14 291.273 411.744 290.713 412.12C290.153 412.496 289.485 412.684 288.709 412.684ZM288.325 411.52C288.789 411.52 289.193 411.392 289.537 411.136C289.937 410.832 290.137 410.408 290.137 409.864C289.329 410.304 288.725 410.856 288.325 411.52ZM301.194 412.84C300.602 412.456 300.062 412.132 299.574 411.868C298.894 413.164 298.338 414.324 297.906 415.348L296.502 414.064C296.902 413.176 297.418 412.184 298.05 411.088L297.102 410.632L297.918 409.228L298.878 409.684C299.614 408.484 300.274 407.512 300.858 406.768L302.154 407.932C301.826 408.364 301.25 409.208 300.426 410.464C300.938 410.752 301.458 411.06 301.986 411.388C303.154 409.38 304.106 407.912 304.842 406.984L306.138 408.148C305.194 409.42 304.286 410.824 303.414 412.36L304.434 413.116L303.498 414.484L302.646 413.836C302.302 414.516 302.026 415.136 301.818 415.696L300.426 414.412C300.618 413.98 300.874 413.456 301.194 412.84ZM309.131 414.244C308.499 414.74 307.771 415.1 306.947 415.324L305.459 413.944C305.459 413.312 305.555 412.692 305.747 412.084C305.939 411.476 306.223 410.928 306.599 410.44C306.975 409.952 307.439 409.548 307.991 409.228C308.551 408.9 309.195 408.704 309.923 408.64L310.715 409.852C310.811 409.7 311.015 409.436 311.327 409.06L312.503 410.068C311.711 411.1 311.055 412.204 310.535 413.38L310.499 413.404C310.963 413.284 311.507 413.08 312.131 412.792C312.755 412.496 313.151 412.304 313.319 412.216L313.583 413.428C313.111 413.772 312.327 414.216 311.231 414.76C310.799 414.976 310.407 415.148 310.055 415.276L309.131 414.244ZM307.139 413.596C307.995 413.364 308.775 412.796 309.479 411.892C309.687 411.436 309.843 410.868 309.947 410.188C309.123 410.268 308.447 410.632 307.919 411.28C307.399 411.92 307.139 412.692 307.139 413.596ZM316.202 414.1C315.698 414.58 315.05 414.988 314.258 415.324L312.662 413.944C312.774 413.04 313.054 412.148 313.502 411.268C313.95 410.388 314.526 409.472 315.23 408.52L316.466 409.468C315.346 410.98 314.638 412.356 314.342 413.596C314.35 413.596 314.422 413.576 314.558 413.536C314.702 413.488 314.886 413.4 315.11 413.272C315.678 412.952 316.202 412.492 316.682 411.892C317.242 410.756 317.778 409.828 318.29 409.108L319.574 410.104C318.822 411.208 318.21 412.3 317.738 413.38L317.69 413.404C318.202 413.268 318.758 413.06 319.358 412.78C319.966 412.5 320.354 412.312 320.522 412.216L320.774 413.428C320.278 413.788 319.498 414.232 318.434 414.76C318.002 414.976 317.61 415.148 317.258 415.276L316.202 414.1ZM322.797 410.824C323.597 410.192 324.425 409.648 325.281 409.192L326.733 410.332C326.469 411.468 326.005 412.492 325.341 413.404C326.141 413.132 327.049 412.736 328.065 412.216L328.317 413.428C327.989 413.644 327.489 413.92 326.817 414.256C325.665 414.824 324.869 415.18 324.429 415.324L322.941 414.268C323.421 413.692 323.821 413.124 324.141 412.564C324.469 411.996 324.681 411.5 324.777 411.076C323.753 411.556 322.777 412.116 321.849 412.756C321.481 413.636 321.169 414.492 320.913 415.324L319.485 414.4C319.757 413.48 320.181 412.444 320.757 411.292C321.277 410.26 321.821 409.388 322.389 408.676L323.601 409.552C323.321 409.928 323.053 410.352 322.797 410.824ZM330.992 409.696C331.736 409.616 332.284 409.528 332.636 409.432L332.912 410.728C332.208 410.904 331.312 411.008 330.224 411.04C329.736 412 329.372 412.872 329.132 413.656C329.78 413.544 330.472 413.384 331.208 413.176C331.944 412.96 332.684 412.64 333.428 412.216L333.68 413.428C332.952 413.932 332.12 414.364 331.184 414.724C330.264 415.076 329.448 415.276 328.736 415.324L327.248 413.944C327.72 412.376 328.524 410.724 329.66 408.988C330.012 408.444 330.388 407.92 330.788 407.416L331.856 408.4C331.544 408.832 331.256 409.264 330.992 409.696ZM335.783 412.684C335.407 412.684 335.111 412.656 334.895 412.6C334.767 412.912 334.687 413.3 334.655 413.764C336.031 413.684 337.359 413.376 338.639 412.84C339.071 412.664 339.487 412.456 339.887 412.216L340.139 413.428C339.395 413.9 338.515 414.316 337.499 414.676C336.419 415.06 335.399 415.276 334.439 415.324L332.951 413.944C332.951 412.84 333.251 411.832 333.851 410.92C334.283 410.288 334.771 409.788 335.315 409.42C335.867 409.052 336.395 408.788 336.899 408.628L338.927 410.308C338.727 411.14 338.347 411.744 337.787 412.12C337.227 412.496 336.559 412.684 335.783 412.684ZM335.399 411.52C335.863 411.52 336.267 411.392 336.611 411.136C337.011 410.832 337.211 410.408 337.211 409.864C336.403 410.304 335.799 410.856 335.399 411.52ZM343.092 414.244C342.46 414.74 341.732 415.1 340.908 415.324L339.42 413.944C339.42 413.312 339.516 412.692 339.708 412.084C339.9 411.476 340.184 410.928 340.56 410.44C340.936 409.952 341.4 409.548 341.952 409.228C342.512 408.9 343.156 408.704 343.884 408.64L344.544 409.648C345.168 408.44 345.824 407.368 346.512 406.432L347.676 407.44C346.884 408.448 346.064 409.88 345.216 411.736C344.96 412.296 344.732 412.844 344.532 413.38C345.388 413.124 346.284 412.736 347.22 412.216L347.484 413.428C346.94 413.836 346.06 414.336 344.844 414.928C344.5 415.088 344.224 415.204 344.016 415.276L343.092 414.244ZM341.1 413.596C341.956 413.364 342.736 412.796 343.44 411.892C343.648 411.436 343.804 410.868 343.908 410.188C343.084 410.268 342.408 410.632 341.88 411.28C341.36 411.92 341.1 412.692 341.1 413.596ZM291.946 422.056C290.57 423.864 289.146 425.648 287.674 427.408L286.402 426.304C286.762 424.136 287.114 422.436 287.458 421.204C286.594 422.58 285.822 423.96 285.142 425.344C284.87 425.888 284.578 426.496 284.266 427.168L282.982 425.968C283.726 424.464 284.35 423.3 284.854 422.476C285.734 421.052 286.658 419.708 287.626 418.444L289.39 419.992C288.918 421.512 288.566 422.98 288.334 424.396C289.606 422.852 290.986 421.008 292.474 418.864L294.19 420.34C293.71 421.892 293.354 422.968 293.122 423.568C292.898 424.16 292.706 424.656 292.546 425.056C292.258 425.776 291.87 426.688 291.382 427.792L289.954 426.628C290.618 425.284 291.086 424.268 291.358 423.58C291.63 422.892 291.826 422.384 291.946 422.056ZM297.869 426.244C297.237 426.74 296.509 427.1 295.685 427.324L294.197 425.944C294.197 425.312 294.293 424.692 294.485 424.084C294.677 423.476 294.961 422.928 295.337 422.44C295.713 421.952 296.177 421.548 296.729 421.228C297.289 420.9 297.933 420.704 298.661 420.64L299.453 421.852C299.549 421.7 299.753 421.436 300.065 421.06L301.241 422.068C300.449 423.1 299.793 424.204 299.273 425.38L299.237 425.404C299.701 425.284 300.245 425.08 300.869 424.792C301.493 424.496 301.889 424.304 302.057 424.216L302.321 425.428C301.849 425.772 301.065 426.216 299.969 426.76C299.537 426.976 299.145 427.148 298.793 427.276L297.869 426.244ZM295.877 425.596C296.733 425.364 297.513 424.796 298.217 423.892C298.425 423.436 298.581 422.868 298.685 422.188C297.861 422.268 297.185 422.632 296.657 423.28C296.137 423.92 295.877 424.692 295.877 425.596ZM304.34 422.824C305.14 422.192 305.968 421.648 306.824 421.192L308.276 422.332C308.012 423.468 307.548 424.492 306.884 425.404C307.684 425.132 308.592 424.736 309.608 424.216L309.86 425.428C309.532 425.644 309.032 425.92 308.36 426.256C307.208 426.824 306.412 427.18 305.972 427.324L304.484 426.268C304.964 425.692 305.364 425.124 305.684 424.564C306.012 423.996 306.224 423.5 306.32 423.076C305.296 423.556 304.32 424.116 303.392 424.756C303.024 425.636 302.712 426.492 302.456 427.324L301.028 426.4C301.3 425.48 301.724 424.444 302.3 423.292C302.82 422.26 303.364 421.388 303.932 420.676L305.144 421.552C304.864 421.928 304.596 422.352 304.34 422.824ZM311.167 427.42C310.591 427.036 310.087 426.672 309.655 426.328C309.263 425.984 308.835 425.572 308.371 425.092L309.607 424.216C310.167 424.8 310.579 425.192 310.843 425.392C311.107 425.584 311.343 425.748 311.551 425.884C311.775 425.86 312.139 425.784 312.643 425.656L310.651 423.772C310.467 423.58 310.323 423.408 310.219 423.256C310.523 422.712 311.047 422.148 311.791 421.564C312.487 421.02 313.151 420.656 313.783 420.472L315.703 422.02C315.567 422.564 315.247 423.284 314.743 424.18L313.459 423.22C313.627 422.972 313.775 422.704 313.903 422.416C314.031 422.128 314.107 421.936 314.131 421.84C313.683 422.008 313.223 422.312 312.751 422.752C312.583 422.912 312.431 423.076 312.295 423.244C312.447 423.476 312.679 423.72 312.991 423.976C313.519 424.432 313.963 424.824 314.323 425.152C315.211 424.848 315.963 424.536 316.579 424.216L316.831 425.428C316.191 425.884 315.291 426.308 314.131 426.7C313.059 427.06 312.071 427.3 311.167 427.42ZM319.436 420.208C319.252 420.016 319.16 419.784 319.16 419.512C319.16 419.24 319.252 419.012 319.436 418.828C319.628 418.636 319.86 418.54 320.132 418.54C320.404 418.54 320.632 418.636 320.816 418.828C321.008 419.012 321.104 419.24 321.104 419.512C321.104 419.784 321.008 420.016 320.816 420.208C320.632 420.392 320.404 420.484 320.132 420.484C319.86 420.484 319.628 420.392 319.436 420.208ZM317.624 425.488C318.44 425.24 319.42 424.816 320.564 424.216L320.816 425.428C320.04 425.932 319.104 426.424 318.008 426.904C317.64 427.064 317.28 427.204 316.928 427.324L315.548 426.052C315.94 424.98 316.644 423.644 317.66 422.044C317.964 421.564 318.26 421.144 318.548 420.784L319.736 421.66C319.152 422.46 318.584 423.424 318.032 424.552C317.872 424.888 317.736 425.2 317.624 425.488ZM324.836 425.644C324.068 426.532 323.056 427.092 321.8 427.324L320.096 425.896C320.096 425.128 320.248 424.368 320.552 423.616C320.936 422.672 321.568 421.908 322.448 421.324C323.056 420.916 323.716 420.664 324.428 420.568L326.336 422.2C326.2 423.064 325.968 423.816 325.64 424.456C326.216 424.424 326.868 424.344 327.596 424.216L327.86 425.428C326.82 425.86 326.004 426.152 325.412 426.304L324.836 425.644ZM321.704 425.692C322.616 425.484 323.376 424.92 323.984 424C324.24 423.608 324.424 423.232 324.536 422.872C324.648 422.512 324.708 422.224 324.716 422.008C324.068 422.096 323.452 422.44 322.868 423.04C322.14 423.784 321.752 424.668 321.704 425.692ZM329.875 422.824C330.675 422.192 331.503 421.648 332.359 421.192L333.811 422.332C333.547 423.468 333.083 424.492 332.419 425.404C333.219 425.132 334.127 424.736 335.143 424.216L335.395 425.428C335.067 425.644 334.567 425.92 333.895 426.256C332.743 426.824 331.947 427.18 331.507 427.324L330.019 426.268C330.499 425.692 330.899 425.124 331.219 424.564C331.547 423.996 331.759 423.5 331.855 423.076C330.831 423.556 329.855 424.116 328.927 424.756C328.559 425.636 328.247 426.492 327.991 427.324L326.563 426.4C326.835 425.48 327.259 424.444 327.835 423.292C328.355 422.26 328.899 421.388 329.467 420.676L330.679 421.552C330.399 421.928 330.131 422.352 329.875 422.824Z" fill="black"/>
</g>
<g clip-path="url(#clip11_7_28)">
<path d="M362 431C361.225 427.898 358.024 417.967 359 412.5L365 396L384 393.5C384 393.5 395.911 405.613 397 416.5C397.6 422.5 403.5 437 395 444.5C394 446 391.5 445 391.5 445C389.5 443.5 387 437 387 437C387 437 387.5 445.5 385.5 446.5C385.124 446.688 383 448 382.55 447.473C381.825 446.622 381 447 380 438L379.5 445C378 446.5 377 446.5 374.5 446.5C368 444 363 435 362 431Z" fill="#A98E97"/>
<path d="M135.5 475L51 447.5C52.5 463.5 59.5 482 71 489H187.5L135.5 475Z" fill="#A98E97"/>
<path d="M317 312H250L272 274.5L314.5 281L317 312Z" fill="#A98E97"/>
<path d="M271.5 307C278 294.5 276.5 286 275 276L283 275.5C289 275 295.5 274.5 299 303.5C299.048 303.897 292 309.5 281.5 310C286.5 305.5 289.5 301.5 290 296.5C284.5 301 280.5 307 271.5 307Z" fill="#F1E6E2"/>
<path d="M135 475.5C132.071 475.891 127 477.5 123.5 477.5L170 423.5L126.5 351.5L148 301L180 291C177 281 173.5 274.5 174.5 257.5L246.5 266.5L235.5 226.5H248L311 262L328 234.5L284 192C319 201.5 341 223 372 242.5L383.5 287.5L372 299L375.5 306L368.5 307.5L381 312.5C375.5 324 373.5 332.5 372.5 345C376 366 379 376 384 392.5C389 401 389 410 382.5 410C378 410 374.5 403.5 370 400V413C368.5 417.5 360.855 417 359.5 413C349 382 342.5 366 321.5 332.5C316 316 310 304 311 283C307 291 307.5 299.5 299 303.5C297.5 294 295.5 282 283.5 276.5C286 283 288.5 289 285.5 294.5C283 288.5 281 284 276.5 278C275 288.5 274 303.5 250.5 312C253 317.5 261 318.5 261 318.5C261 318.5 261.5 323 263 325L278.5 350C279 356 279 359 275.5 364C272.5 365.5 270 363.5 268 362C265 367.5 262 367.5 257.5 366C255.5 367 254 368 251 366.5C249 362.5 249 359.5 251 353C241 340 225.5 327.5 204 313C198 314 185.861 318.5 186.5 341.5C187.5 377.5 221 394 221 434C217 456.5 218.5 470.5 189 489C167.5 487.5 153.5 485 135 475.5Z" fill="#38101C"/>
<path d="M115.5 444.5C108.5 432.5 101 426 99.5 407.5L149 413.5L157.5 435.5L115.5 444.5Z" fill="#38101C"/>
<path d="M480 299.5C460.5 297.5 421.2 293.5 420 293.5L426.5 285L376 262.5L353 240C376 240 387.5 246 400.5 252.5C424 249 430 250 447 253C469.5 240.5 475.5 240.5 492 240.5L491 242.5L475.5 275C480 285 480 290.5 480 299.5Z" fill="#38101C"/>
<path d="M380.5 259.5C389 256.5 393 254.5 406 253.5C417 253.5 420.5 256 425 259.5C424.833 265.833 424.5 279.6 424.5 280C424.5 280.4 425.333 291.667 426 297L374.5 301.5L365 294C365 280.5 368 268.5 380.5 259.5Z" fill="#411C27"/>
<path d="M369.5 250.706L355 241.5C367.5 241.5 368.5 243.5 374 245C374.5 247 373.5 249.206 369.5 250.706Z" fill="#411C27"/>
<path d="M426 300.5C427 305.5 436.5 309.5 418.5 310.5L479 311C489 309 494.5 308 504 304L486.5 304.5C490 302.5 491.5 300.5 492.5 296.5L475 298C462.5 294 456.5 285.5 440.5 285C430.5 285.5 430.748 288.047 424.5 290L426 300.5Z" fill="#B499A2"/>
<path d="M366 295C362 295 357.5 294.5 353.5 289.5C353.5 296.5 357.5 299 361 303C353 302 348.5 300.5 340 297C352 314.5 383.5 311.5 404 311.5C422.5 311.5 430 310 430 307C430 305.5 427.172 304.672 426 303.5L425.5 297C425.5 292 419.5 287.5 404.5 286C388.5 286 381 295 366 295Z" fill="#F1E6E2"/>
<path d="M445 292C440 292.5 432.5 294 432.5 299.5C432.5 303 438.5 304 443 304C452.5 304 454 299.5 454 297C453.5 295 451.5 292 445 292Z" fill="#F1E6E2"/>
<path d="M423.5 280.5C421.5 274.5 420 270.5 419 262C422 264.5 422.5 266 423.5 268.5C425 262.5 426.5 258.5 429 254.5C429 265 428 274.5 423.5 280.5Z" fill="#F1E6E2"/>
<path d="M416 287.5C416 286.5 417 283 424.5 283C433 283 434 285.5 434 287.5C434 292.5 428 296 425 296C422 296 416 292.5 416 287.5Z" fill="#E1819D"/>
<path d="M384.5 258.5C376.5 251.5 370 245 353 240C355.5 256.5 361.5 267.5 368.5 276C373 268.5 377.5 262.5 384.5 258.5Z" fill="#653544"/>
<path d="M476.5 277C473 271 468.5 266.5 461.5 261C471.5 246.5 482.5 241 492 240.5C485 265 484.5 268 476.5 277Z" fill="#653544"/>
<path d="M369.066 260.169C369.066 258 361 248 353.566 241.169C355 255 361 268 364 268C367 268 369.066 264.5 369.066 260.169Z" fill="#F5B8CA"/>
<path d="M82 391.5C79.5 426.5 82.5 422.5 89.5 436.5C101.5 459 112 460.5 123.5 464.5C121.5 466 116.5 467 108 467C99.5 467 96.5 466 88.5 463.5C100.5 474 110 474.5 123.5 477.5L107 478.5C82.5 478.5 61 462.5 52 450C50.5 446.5 51.5 444.5 52.5 442.5L52.5 442.5C54.5 446.5 56 448 59 450C57 444.5 55 440.778 55 433C57.5 402.5 77 395 82 391.5Z" fill="#F1E6E2"/>
<path d="M121.12 463.868C109.704 459.899 96.4176 455.28 89 435.5C102 444 109 442 120.5 443C136 440.5 143.5 435.5 154.5 429C146 430 140.5 431 131 430.5C120 430.5 98 421.5 98 399.5C98.5 386 102 380.5 106 371C100.5 376 98.5 378.5 95 387C92.5 379.5 90.5 377 90 365C90 304 141.5 289.5 166.5 289.5C174.375 289.5 175 290 180.5 291C148.5 299.5 137 321 137 346.5C138.5 387 176 389.5 176 426C176 451.5 146.5 471.5 123.5 477.5C112.5 476.5 99.5 474 88 463C103.5 467.5 109 467.5 121.5 464L121.12 463.868Z" fill="#38101C"/>
<path d="M214.5 287.5C203.5 287.5 174.5 276.263 174.5 256.5C174.5 241 184 189 256.5 189C326 189 328.5 235 328.5 235C328 244.5 318 266 300.5 264C264 257.5 264.5 228 237.5 228C237.5 228 251.5 238.5 251.5 254.5C251.5 269 238.5 287.5 214.5 287.5Z" fill="#411C27"/>
<path d="M439 307C432.5 307 425.5 302 425.5 297.5H424.5C424.5 303 411.5 308 406 308L387.5 308.5L406 309C416.5 308.5 419 305 424.5 302.5H425H425.5C430.5 306 432 308 439 308C450.761 308 453.627 305.867 463 304.5C453.627 305.476 448 307 439 307Z" fill="black"/>
<path d="M414 282C412 280 411.5 278.5 406.5 278C397.5 280 393.5 282.5 388.5 287.5C393.186 285.743 396 284 400.5 283C405.772 282.609 410 284 414 282Z" fill="black"/>
<path d="M457.5 283.5C452 281 449.5 279.5 440.5 277.5C435.5 278 434.5 279.5 433 281.5C435.5 282.5 438 282.5 441.5 282.5L457.5 283.5Z" fill="black"/>
<path d="M414.5 264.5C410.5 263 399.5 261 399.5 261C406.5 264.5 411.5 267.5 414.5 273C416 271.5 416 269 414.5 264.5Z" fill="black"/>
<path d="M434 263C428 267.5 431 273 433 274C434.562 271.266 436 263.5 446.5 262.5L434 263Z" fill="black"/>
<path d="M315.693 274.905C315.364 274.799 315.012 274.979 314.905 275.307C314.799 275.636 314.979 275.988 315.307 276.095L315.693 274.905ZM350.3 272.452C349.997 272.286 349.618 272.397 349.452 272.7C349.286 273.003 349.397 273.382 349.7 273.548L350.3 272.452ZM326.581 294.38C326.239 294.335 325.925 294.576 325.88 294.919C325.835 295.261 326.076 295.575 326.419 295.62L326.581 294.38ZM501.785 270.556C502.092 270.399 502.214 270.022 502.056 269.715C501.899 269.408 501.522 269.286 501.215 269.444L501.785 270.556ZM536.703 271.591C537.03 271.479 537.203 271.123 537.091 270.797C536.979 270.47 536.623 270.297 536.297 270.409L536.703 271.591ZM527.099 290.617C527.44 290.562 527.672 290.242 527.617 289.901C527.562 289.56 527.242 289.328 526.901 289.383L527.099 290.617ZM431.336 294.527C431.627 294.342 431.713 293.956 431.527 293.664C431.342 293.373 430.956 293.287 430.664 293.473L431.336 294.527ZM463 304.5L463.09 305.118C463.427 305.069 463.662 304.76 463.62 304.423C463.578 304.085 463.274 303.843 462.935 303.878L463 304.5ZM425.5 302.5L425.858 301.988L425.697 301.875H425.5V302.5ZM424.5 302.5V301.875H424.365L424.241 301.931L424.5 302.5ZM406 309L405.983 309.625L406.006 309.625L406.03 309.624L406 309ZM387.5 308.5L387.483 307.875C387.145 307.884 386.875 308.161 386.875 308.5C386.875 308.839 387.145 309.116 387.483 309.125L387.5 308.5ZM406 308V307.375H405.992L405.983 307.375L406 308ZM419.822 293.964C419.526 293.786 419.142 293.882 418.964 294.178C418.786 294.474 418.882 294.858 419.178 295.036L419.822 293.964ZM439.058 294.058C438.814 294.302 438.814 294.698 439.058 294.942C439.302 295.186 439.698 295.186 439.942 294.942L439.058 294.058ZM440.942 293.942C441.186 293.698 441.186 293.302 440.942 293.058C440.698 292.814 440.302 292.814 440.058 293.058L440.942 293.942ZM443.058 297.058C442.814 297.302 442.814 297.698 443.058 297.942C443.302 298.186 443.698 298.186 443.942 297.942L443.058 297.058ZM444.942 296.942C445.186 296.698 445.186 296.302 444.942 296.058C444.698 295.814 444.302 295.814 444.058 296.058L444.942 296.942ZM409.942 292.058C409.698 291.814 409.302 291.814 409.058 292.058C408.814 292.302 408.814 292.698 409.058 292.942L409.942 292.058ZM410.058 293.942C410.302 294.186 410.698 294.186 410.942 293.942C411.186 293.698 411.186 293.302 410.942 293.058L410.058 293.942ZM406.058 297.942C406.302 298.186 406.698 298.186 406.942 297.942C407.186 297.698 407.186 297.302 406.942 297.058L406.058 297.942ZM405.942 296.058C405.698 295.814 405.302 295.814 405.058 296.058C404.814 296.302 404.814 296.698 405.058 296.942L405.942 296.058ZM406.5 278L406.562 277.378L406.462 277.368L406.364 277.39L406.5 278ZM414 282L414.28 282.559L415.055 282.171L414.442 281.558L414 282ZM400.5 283L400.454 282.377L400.409 282.38L400.364 282.39L400.5 283ZM388.5 287.5L388.058 287.058L388.719 288.085L388.5 287.5ZM440.5 277.5L440.636 276.89L440.538 276.868L440.438 276.878L440.5 277.5ZM457.5 283.5L457.461 284.124L457.759 282.931L457.5 283.5ZM441.5 282.5L441.539 281.876L441.52 281.875H441.5V282.5ZM433 281.5L432.5 281.125L432.011 281.777L432.768 282.08L433 281.5ZM399.5 261L399.612 260.385L399.22 261.559L399.5 261ZM414.5 264.5L415.093 264.302L414.999 264.019L414.719 263.915L414.5 264.5ZM414.5 273L413.951 273.299L414.351 274.033L414.942 273.442L414.5 273ZM433 274L432.72 274.559L433.249 274.823L433.543 274.31L433 274ZM434 263L433.975 262.375L433.781 262.383L433.625 262.5L434 263ZM446.5 262.5L446.559 263.122L446.475 261.875L446.5 262.5ZM376.442 224.058C376.198 223.814 375.802 223.814 375.558 224.058C375.314 224.302 375.314 224.698 375.558 224.942L376.442 224.058ZM472.451 221.433C472.69 221.184 472.682 220.788 472.433 220.549C472.184 220.31 471.788 220.318 471.549 220.567L472.451 221.433ZM456.004 229.37C456.208 229.091 456.148 228.7 455.87 228.496C455.591 228.292 455.2 228.352 454.996 228.63L456.004 229.37ZM397.028 230.665C396.843 230.374 396.457 230.287 396.165 230.472C395.874 230.657 395.787 231.043 395.972 231.335L397.028 230.665ZM315.307 276.095C350.826 287.601 365.845 291.606 399.363 299.11L399.637 297.89C366.155 290.394 351.174 286.399 315.693 274.905L315.307 276.095ZM349.7 273.548C370.755 285.078 381.306 288.094 403.298 295.592L403.702 294.408C381.694 286.906 371.245 283.922 350.3 272.452L349.7 273.548ZM326.419 295.62C356.939 299.622 373.967 301.125 405 301.125V299.875C374.033 299.875 357.061 298.378 326.581 294.38L326.419 295.62ZM501.215 269.444C481.717 279.443 471.25 284.925 449.794 292.41L450.206 293.59C471.75 286.075 482.283 280.557 501.785 270.556L501.215 269.444ZM536.297 270.409C504.306 281.406 487.319 286.902 454.336 295.897L454.664 297.103C487.681 288.098 504.694 282.594 536.703 271.591L536.297 270.409ZM526.901 289.383C498.892 293.884 482.922 296.879 454.456 298.877L454.544 300.123C483.078 298.121 499.108 295.116 527.099 290.617L526.901 289.383ZM430.664 293.473L425.164 296.973L425.836 298.027L431.336 294.527L430.664 293.473ZM424.875 297.5C424.875 300.056 426.831 302.594 429.452 304.448C432.103 306.323 435.601 307.625 439 307.625V306.375C435.899 306.375 432.647 305.177 430.173 303.427C427.669 301.656 426.125 299.444 426.125 297.5H424.875ZM439 307.625C448.035 307.625 453.795 306.087 463.065 305.122L462.935 303.878C453.46 304.865 447.965 306.375 439 306.375V307.625ZM462.91 303.882C458.2 304.568 455.08 305.456 451.767 306.151C448.448 306.847 444.835 307.375 439 307.375V308.625C444.926 308.625 448.626 308.087 452.024 307.374C455.428 306.661 458.428 305.798 463.09 305.118L462.91 303.882ZM439 307.375C435.567 307.375 433.544 306.886 431.78 306.003C429.959 305.093 428.421 303.782 425.858 301.988L425.142 303.012C427.579 304.718 429.291 306.157 431.22 307.122C433.206 308.114 435.433 308.625 439 308.625V307.375ZM425.5 301.875H425V303.125H425.5V301.875ZM425 301.875H424.5V303.125H425V301.875ZM424.241 301.931C418.568 304.51 416.311 307.883 405.97 308.376L406.03 309.624C416.689 309.117 419.432 305.49 424.759 303.069L424.241 301.931ZM406.017 308.375L387.517 307.875L387.483 309.125L405.983 309.625L406.017 308.375ZM387.517 309.125L406.017 308.625L405.983 307.375L387.483 307.875L387.517 309.125ZM406 308.625C408.879 308.625 413.601 307.335 417.588 305.373C419.589 304.389 421.447 303.215 422.814 301.914C424.169 300.623 425.125 299.126 425.125 297.5H423.875C423.875 298.624 423.206 299.815 421.952 301.008C420.709 302.191 418.973 303.299 417.037 304.252C413.149 306.165 408.621 307.375 406 307.375V308.625ZM424.822 296.964L419.822 293.964L419.178 295.036L424.178 298.036L424.822 296.964ZM424.5 298.125H425.5V296.875H424.5V298.125ZM439.942 294.942L440.942 293.942L440.058 293.058L439.058 294.058L439.942 294.942ZM443.942 297.942L444.942 296.942L444.058 296.058L443.058 297.058L443.942 297.942ZM409.058 292.942L410.058 293.942L410.942 293.058L409.942 292.058L409.058 292.942ZM406.942 297.058L405.942 296.058L405.058 296.942L406.058 297.942L406.942 297.058ZM406.438 278.622C408.88 278.866 410.14 279.347 411.021 279.953C411.468 280.26 411.839 280.614 412.233 281.031C412.613 281.432 413.054 281.937 413.558 282.442L414.442 281.558C413.946 281.063 413.575 280.63 413.142 280.172C412.723 279.729 412.282 279.303 411.729 278.922C410.61 278.153 409.12 277.634 406.562 277.378L406.438 278.622ZM413.72 281.441C411.858 282.372 409.925 282.527 407.741 282.479C405.591 282.431 403.128 282.179 400.454 282.377L400.546 283.623C403.144 283.431 405.431 283.678 407.713 283.728C409.961 283.778 412.142 283.628 414.28 282.559L413.72 281.441ZM400.364 282.39C398.063 282.901 396.196 283.603 394.327 284.39C392.449 285.181 390.609 286.042 388.281 286.915L388.719 288.085C391.077 287.201 392.987 286.311 394.813 285.542C396.647 284.769 398.437 284.099 400.636 283.61L400.364 282.39ZM388.942 287.942C391.419 285.465 393.621 283.635 396.299 282.174C398.98 280.711 402.169 279.603 406.636 278.61L406.364 277.39C401.831 278.397 398.52 279.539 395.701 281.076C392.879 282.615 390.581 284.535 388.058 287.058L388.942 287.942ZM440.364 278.11C449.293 280.094 451.74 281.568 457.241 284.069L457.759 282.931C452.26 280.432 449.707 278.906 440.636 276.89L440.364 278.11ZM457.539 282.876L441.539 281.876L441.461 283.124L457.461 284.124L457.539 282.876ZM441.5 281.875C437.973 281.875 435.6 281.867 433.232 280.92L432.768 282.08C435.4 283.133 438.027 283.125 441.5 283.125V281.875ZM433.5 281.875C434.265 280.855 434.825 280.078 435.777 279.462C436.724 278.85 438.114 278.367 440.562 278.122L440.438 276.878C437.886 277.133 436.276 277.65 435.098 278.413C433.925 279.172 433.235 280.145 432.5 281.125L433.5 281.875ZM399.5 261C399.388 261.615 399.388 261.615 399.388 261.615C399.388 261.615 399.388 261.615 399.389 261.615C399.389 261.615 399.389 261.615 399.39 261.615C399.391 261.615 399.393 261.616 399.396 261.616C399.401 261.617 399.409 261.619 399.419 261.621C399.44 261.624 399.471 261.63 399.511 261.637C399.592 261.652 399.712 261.675 399.866 261.703C400.173 261.761 400.617 261.844 401.163 261.95C402.254 262.16 403.75 262.456 405.371 262.799C408.63 263.488 412.332 264.355 414.281 265.085L414.719 263.915C412.668 263.145 408.87 262.262 405.629 261.576C404 261.231 402.496 260.934 401.4 260.722C400.851 260.617 400.405 260.532 400.095 260.474C399.94 260.446 399.82 260.423 399.738 260.408C399.697 260.401 399.665 260.395 399.644 260.391C399.634 260.389 399.626 260.388 399.62 260.387C399.617 260.386 399.615 260.386 399.614 260.385C399.613 260.385 399.613 260.385 399.612 260.385C399.612 260.385 399.612 260.385 399.612 260.385C399.612 260.385 399.612 260.385 399.5 261ZM413.907 264.698C414.65 266.927 415 268.601 415 269.875C415 271.126 414.664 271.952 414.058 272.558L414.942 273.442C415.836 272.548 416.25 271.374 416.25 269.875C416.25 268.399 415.85 266.573 415.093 264.302L413.907 264.698ZM415.049 272.701C411.946 267.013 406.778 263.94 399.78 260.441L399.22 261.559C406.222 265.06 411.054 267.987 413.951 273.299L415.049 272.701ZM433.28 273.441C432.909 273.256 432.423 272.818 431.994 272.153C431.572 271.499 431.233 270.666 431.12 269.737C430.9 267.92 431.534 265.631 434.375 263.5L433.625 262.5C430.466 264.869 429.6 267.58 429.88 269.888C430.017 271.021 430.428 272.033 430.944 272.831C431.452 273.619 432.091 274.244 432.72 274.559L433.28 273.441ZM434.025 263.625L446.525 263.125L446.475 261.875L433.975 262.375L434.025 263.625ZM446.441 261.878C441.014 262.395 437.874 264.676 435.904 267.217C434.929 268.475 434.252 269.782 433.724 270.929C433.177 272.118 432.831 273.036 432.457 273.69L433.543 274.31C433.95 273.597 434.369 272.519 434.86 271.452C435.369 270.343 436 269.133 436.892 267.983C438.657 265.707 441.486 263.605 446.559 263.122L446.441 261.878ZM375.558 224.942C376.33 225.714 378.137 227.267 380.484 229.279C382.844 231.303 385.777 233.815 388.835 236.53C394.966 241.972 401.542 248.182 404.997 252.871L406.003 252.129C402.458 247.318 395.784 241.028 389.665 235.595C386.598 232.872 383.656 230.353 381.298 228.33C378.925 226.296 377.17 224.786 376.442 224.058L375.558 224.942ZM471.549 220.567C459.567 233.048 453.04 239.076 442.023 252.096L442.977 252.904C453.96 239.924 460.433 233.952 472.451 221.433L471.549 220.567ZM454.996 228.63L438.496 251.13L439.504 251.87L456.004 229.37L454.996 228.63ZM395.972 231.335L408.972 251.835L410.028 251.165L397.028 230.665L395.972 231.335Z" fill="black"/>
</g>
</g>
<defs>
<filter id="filter0_i_7_28" x="-0.5" y="-0.51239" width="598" height="109.012" filterUnits="userSpaceOnUse" color-interpolation-filters="sRGB">
<feFlood flood-opacity="0" result="BackgroundImageFix"/>
<feBlend mode="normal" in="SourceGraphic" in2="BackgroundImageFix" result="shape"/>
<feColorMatrix in="SourceAlpha" type="matrix" values="0 0 0 0 0 0 0 0 0 0 0 0 0 0 0 0 0 0 127 0" result="hardAlpha"/>
<feOffset dx="4" dy="-4"/>
<feComposite in2="hardAlpha" operator="arithmetic" k2="-1" k3="1"/>
<feColorMatrix type="matrix" values="0 0 0 0 0 0 0 0 0 0 0 0 0 0 0 0 0 0 0.25 0"/>
<feBlend mode="normal" in2="shape" result="effect1_innerShadow_7_28"/>
</filter>
<filter id="filter1_i_7_28" x="52.5" y="17.5" width="494" height="61" filterUnits="userSpaceOnUse" color-interpolation-filters="sRGB">
<feFlood flood-opacity="0" result="BackgroundImageFix"/>
<feBlend mode="normal" in="SourceGraphic" in2="BackgroundImageFix" result="shape"/>
<feColorMatrix in="SourceAlpha" type="matrix" values="0 0 0 0 0 0 0 0 0 0 0 0 0 0 0 0 0 0 127 0" result="hardAlpha"/>
<feOffset dx="4" dy="4"/>
<feComposite in2="hardAlpha" operator="arithmetic" k2="-1" k3="1"/>
<feColorMatrix type="matrix" values="0 0 0 0 0 0 0 0 0 0 0 0 0 0 0 0 0 0 0.25 0"/>
<feBlend mode="normal" in2="shape" result="effect1_innerShadow_7_28"/>
</filter>
<clipPath id="clip0_7_28">
<rect width="597" height="646" fill="white"/>
</clipPath>
<clipPath id="clip1_7_28">
<rect width="597" height="646" fill="white"/>
</clipPath>
<clipPath id="clip2_7_28">
<rect width="597" height="646" fill="white"/>
</clipPath>
<clipPath id="clip3_7_28">
<rect width="28" height="150" fill="white" transform="translate(536.752 338) rotate(17.7591)"/>
</clipPath>
<clipPath id="clip4_7_28">
<rect width="28" height="150" fill="white" transform="matrix(0 1 -1 0 262.031 595.166)"/>
</clipPath>
<clipPath id="clip5_7_28">
<rect width="28" height="150" fill="white" transform="matrix(0 1 -1 0 397.031 461.166)"/>
</clipPath>
<clipPath id="clip6_7_28">
<rect width="28" height="150" fill="white" transform="matrix(0 1 -1 0 275 567)"/>
</clipPath>
<clipPath id="clip7_7_28">
<rect width="28" height="150" fill="white" transform="matrix(0 1 -1 0 421 433)"/>
</clipPath>
<clipPath id="clip8_7_28">
<rect width="28" height="150" fill="white" transform="matrix(0 1 -1 0 260 539)"/>
</clipPath>
<clipPath id="clip9_7_28">
<rect width="28" height="150" fill="white" transform="matrix(0 1 -1 0 550 595)"/>
</clipPath>
<clipPath id="clip10_7_28">
<rect width="28" height="150" fill="white" transform="matrix(0 1 -1 0 385 405)"/>
</clipPath>
<clipPath id="clip11_7_28">
<rect width="485.5" height="300" fill="white" transform="translate(51 189)"/>
</clipPath>
</defs>
</svg>
