<svg width="1108" height="973" viewBox="0 0 1108 973" fill="none" xmlns="http://www.w3.org/2000/svg">
<g clip-path="url(#clip0_7_28)">
<rect x="312.5" y="208.5" width="556" height="540" fill="#422D2A" stroke="#935F47" stroke-width="23"/>
<path d="M857 324C857 324 826.5 240.5 589 240.5C351.5 240.5 324 324 324 324V197.5H857V324Z" fill="#5E4437"/>
<g filter="url(#filter0_i_7_28)">
<path d="M883 194V222H590.5H298V194H296L292 189.5V158.25H342.5V169.5L590.5 114L838.5 169.5V158.25H889V189.5L885 194H883Z" fill="#5E4437"/>
</g>
<path d="M883 194V222H590.5H298V194H296L292 189.5V158.25H342.5V169.5L590.5 114L838.5 169.5V158.25H889V189.5L885 194H883Z" stroke="#5E4437"/>
<g filter="url(#filter1_i_7_28)">
<path d="M344.5 188L591 131.5L838.5 188V192.5H344.5V188Z" fill="#935F47"/>
</g>
<rect x="323" y="426" width="535" height="24" fill="#5E4437"/>
<rect x="323" y="603" width="535" height="23" fill="#5E4437"/>
<g clip-path="url(#clip1_7_28)">
<path d="M856.808 462.445L812.276 601.488C812.276 601.488 811.666 603.393 798.333 599.122C785 594.852 785.61 592.947 785.61 592.947L830.142 453.905C830.142 453.905 830.752 452 844.085 456.27C857.418 460.54 856.808 462.445 856.808 462.445Z" fill="#D9D9D9"/>
<rect x="827.092" y="463.428" width="28" height="18" transform="rotate(17.7591 827.092 463.428)" fill="#DFC740"/>
<rect x="793.845" y="567.234" width="28" height="18" transform="rotate(17.7591 793.845 567.234)" fill="#DFC740"/>
</g>
<g clip-path="url(#clip2_7_28)">
<path d="M554.031 737.166H408.031C408.031 737.166 406.031 737.166 406.031 723.166C406.031 709.166 408.031 709.166 408.031 709.166H554.031C554.031 709.166 556.031 709.166 556.031 723.166C556.031 737.166 554.031 737.166 554.031 737.166Z" fill="#754F4F"/>
<rect x="544.031" y="709.166" width="28" height="18" transform="rotate(90 544.031 709.166)" fill="#6C5F14"/>
<rect x="435.031" y="709.166" width="28" height="18" transform="rotate(90 435.031 709.166)" fill="#6C5F14"/>
</g>
<g clip-path="url(#clip3_7_28)">
<path d="M689.031 603.166H543.031C543.031 603.166 541.031 603.166 541.031 589.166C541.031 575.166 543.031 575.166 543.031 575.166H689.031C689.031 575.166 691.031 575.166 691.031 589.166C691.031 603.166 689.031 603.166 689.031 603.166Z" fill="#892877"/>
<rect x="679.031" y="575.166" width="28" height="18" transform="rotate(90 679.031 575.166)" fill="#4A2984"/>
<rect x="570.031" y="575.166" width="28" height="18" transform="rotate(90 570.031 575.166)" fill="#4A2984"/>
</g>
<g clip-path="url(#clip4_7_28)">
<path d="M567 709H421C421 709 419 709 419 695C419 681 421 681 421 681H567C567 681 569 681 569 695C569 709 567 709 567 709Z" fill="#1B6EB1"/>
<rect x="557" y="681" width="28" height="18" transform="rotate(90 557 681)" fill="#7C1A1C"/>
<rect x="448" y="681" width="28" height="18" transform="rotate(90 448 681)" fill="#7C1A1C"/>
</g>
<g clip-path="url(#clip5_7_28)">
<path d="M713 575H567C567 575 565 575 565 561C565 547 567 547 567 547H713C713 547 715 547 715 561C715 575 713 575 713 575Z" fill="#1E7A12"/>
<rect x="703" y="547" width="28" height="18" transform="rotate(90 703 547)" fill="#958945"/>
<rect x="594" y="547" width="28" height="18" transform="rotate(90 594 547)" fill="#958945"/>
</g>
<g clip-path="url(#clip6_7_28)">
<path d="M552 681H406C406 681 404 681 404 667C404 653 406 653 406 653H552C552 653 554 653 554 667C554 681 552 681 552 681Z" fill="#B1781B"/>
<rect x="542" y="653" width="28" height="18" transform="rotate(90 542 653)" fill="#DFA740"/>
<rect x="433" y="653" width="28" height="18" transform="rotate(90 433 653)" fill="#DFA740"/>
</g>
<g clip-path="url(#clip7_7_28)">
<path d="M842 737H696C696 737 694 737 694 723C694 709 696 709 696 709H842C842 709 844 709 844 723C844 737 842 737 842 737Z" fill="#1BB166"/>
<rect x="832" y="709" width="28" height="18" transform="rotate(90 832 709)" fill="#4085DF"/>
<rect x="723" y="709" width="28" height="18" transform="rotate(90 723 709)" fill="#4085DF"/>
</g>
<g clip-path="url(#clip8_7_28)">
<path d="M677 547H531C531 547 529 547 529 533C529 519 531 519 531 519H677C677 519 679 519 679 533C679 547 677 547 677 547Z" fill="#1B84B1"/>
<rect x="667" y="519" width="28" height="18" transform="rotate(90 667 519)" fill="#712AAE"/>
<rect x="558" y="519" width="28" height="18" transform="rotate(90 558 519)" fill="#712AAE"/>
</g>
<path d="M661 545C660.224 541.898 657.024 531.967 658 526.5L664 510L683 507.5C683 507.5 694.911 519.613 696 530.5C696.6 536.5 702.5 551 694 558.5C693 560 690.5 559 690.5 559C688.5 557.5 686 551 686 551C686 551 686.5 559.5 684.5 560.5C684.124 560.688 682 562 681.55 561.473C680.825 560.622 680 561 679 552L678.5 559C677 560.5 676 560.5 673.5 560.5C667 558 662 549 661 545Z" fill="#A98E97"/>
<path d="M434.5 589L350 561.5C351.5 577.5 358.5 596 370 603H486.5L434.5 589Z" fill="#A98E97"/>
<path d="M616 426H549L571 388.5L613.5 395L616 426Z" fill="#A98E97"/>
<path d="M570.5 421C577 408.5 575.5 400 574 390L582 389.5C588 389 594.5 388.5 598 417.5C598.048 417.897 591 423.5 580.5 424C585.5 419.5 588.5 415.5 589 410.5C583.5 415 579.5 421 570.5 421Z" fill="#F1E6E2"/>
<path d="M434 589.5C431.071 589.891 426 591.5 422.5 591.5L469 537.5L425.5 465.5L447 415L479 405C476 395 472.5 388.5 473.5 371.5L545.5 380.5L534.5 340.5H547L610 376L627 348.5L583 306C618 315.5 640 337 671 356.5L682.5 401.5L671 413L674.5 420L667.5 421.5L680 426.5C674.5 438 672.5 446.5 671.5 459C675 480 678 490 683 506.5C688 515 688 524 681.5 524C677 524 673.5 517.5 669 514V527C667.5 531.5 659.855 531 658.5 527C648 496 641.5 480 620.5 446.5C615 430 609 418 610 397C606 405 606.5 413.5 598 417.5C596.5 408 594.5 396 582.5 390.5C585 397 587.5 403 584.5 408.5C582 402.5 580 398 575.5 392C574 402.5 573 417.5 549.5 426C552 431.5 560 432.5 560 432.5C560 432.5 560.5 437 562 439L577.5 464C578 470 578 473 574.5 478C571.5 479.5 569 477.5 567 476C564 481.5 561 481.5 556.5 480C554.5 481 553 482 550 480.5C548 476.5 548 473.5 550 467C540 454 524.5 441.5 503 427C497 428 484.861 432.5 485.5 455.5C486.5 491.5 520 508 520 548C516 570.5 517.5 584.5 488 603C466.5 601.5 452.5 599 434 589.5Z" fill="#38101C"/>
<path d="M414.5 558.5C407.5 546.5 400 540 398.5 521.5L448 527.5L456.5 549.5L414.5 558.5Z" fill="#38101C"/>
<path d="M779 413.5C759.5 411.5 720.2 407.5 719 407.5L725.5 399L675 376.5L652 354C675 354 686.5 360 699.5 366.5C723 363 729 364 746 367C768.5 354.5 774.5 354.5 791 354.5L790 356.5L774.5 389C779 399 779 404.5 779 413.5Z" fill="#38101C"/>
<path d="M679.5 373.5C688 370.5 692 368.5 705 367.5C716 367.5 719.5 370 724 373.5C723.833 379.833 723.5 393.6 723.5 394C723.5 394.4 724.333 405.667 725 411L673.5 415.5L664 408C664 394.5 667 382.5 679.5 373.5Z" fill="#411C27"/>
<path d="M668.5 364.706L654 355.5C666.5 355.5 667.5 357.5 673 359C673.5 361 672.5 363.206 668.5 364.706Z" fill="#411C27"/>
<path d="M725 414.5C726 419.5 735.5 423.5 717.5 424.5L778 425C788 423 793.5 422 803 418L785.5 418.5C789 416.5 790.5 414.5 791.5 410.5L774 412C761.5 408 755.5 399.5 739.5 399C729.5 399.5 729.748 402.047 723.5 404L725 414.5Z" fill="#B499A2"/>
<path d="M665 409C661 409 656.5 408.5 652.5 403.5C652.5 410.5 656.5 413 660 417C652 416 647.5 414.5 639 411C651 428.5 682.5 425.5 703 425.5C721.5 425.5 729 424 729 421C729 419.5 726.172 418.672 725 417.5L724.5 411C724.5 406 718.5 401.5 703.5 400C687.5 400 680 409 665 409Z" fill="#F1E6E2"/>
<path d="M744 406C739 406.5 731.5 408 731.5 413.5C731.5 417 737.5 418 742 418C751.5 418 753 413.5 753 411C752.5 409 750.5 406 744 406Z" fill="#F1E6E2"/>
<path d="M722.5 394.5C720.5 388.5 719 384.5 718 376C721 378.5 721.5 380 722.5 382.5C724 376.5 725.5 372.5 728 368.5C728 379 727 388.5 722.5 394.5Z" fill="#F1E6E2"/>
<path d="M715 401.5C715 400.5 716 397 723.5 397C732 397 733 399.5 733 401.5C733 406.5 727 410 724 410C721 410 715 406.5 715 401.5Z" fill="#E1819D"/>
<path d="M683.5 372.5C675.5 365.5 669 359 652 354C654.5 370.5 660.5 381.5 667.5 390C672 382.5 676.5 376.5 683.5 372.5Z" fill="#653544"/>
<path d="M775.5 391C772 385 767.5 380.5 760.5 375C770.5 360.5 781.5 355 791 354.5C784 379 783.5 382 775.5 391Z" fill="#653544"/>
<path d="M668.066 374.169C668.066 372 660 362 652.566 355.169C654 369 660 382 663 382C666 382 668.066 378.5 668.066 374.169Z" fill="#F5B8CA"/>
<path d="M381 505.5C378.5 540.5 381.5 536.5 388.5 550.5C400.5 573 411 574.5 422.5 578.5C420.5 580 415.5 581 407 581C398.5 581 395.5 580 387.5 577.5C399.5 588 409 588.5 422.5 591.5L406 592.5C381.5 592.5 360 576.5 351 564C349.5 560.5 350.5 558.5 351.5 556.5L351.5 556.5C353.5 560.5 355 562 358 564C356 558.5 354 554.778 354 547C356.5 516.5 376 509 381 505.5Z" fill="#F1E6E2"/>
<path d="M420.12 577.868C408.704 573.899 395.418 569.28 388 549.5C401 558 408 556 419.5 557C435 554.5 442.5 549.5 453.5 543C445 544 439.5 545 430 544.5C419 544.5 397 535.5 397 513.5C397.5 500 401 494.5 405 485C399.5 490 397.5 492.5 394 501C391.5 493.5 389.5 491 389 479C389 418 440.5 403.5 465.5 403.5C473.375 403.5 474 404 479.5 405C447.5 413.5 436 435 436 460.5C437.5 501 475 503.5 475 540C475 565.5 445.5 585.5 422.5 591.5C411.5 590.5 398.5 588 387 577C402.5 581.5 408 581.5 420.5 578L420.12 577.868Z" fill="#38101C"/>
<path d="M513.5 401.5C502.5 401.5 473.5 390.263 473.5 370.5C473.5 355 483 303 555.5 303C625 303 627.5 349 627.5 349C627 358.5 617 380 599.5 378C563 371.5 563.5 342 536.5 342C536.5 342 550.5 352.5 550.5 368.5C550.5 383 537.5 401.5 513.5 401.5Z" fill="#411C27"/>
<path d="M738 421C731.5 421 724.5 416 724.5 411.5H723.5C723.5 417 710.5 422 705 422L686.5 422.5L705 423C715.5 422.5 718 419 723.5 416.5H724H724.5C729.5 420 731 422 738 422C749.761 422 752.627 419.867 762 418.5C752.627 419.476 747 421 738 421Z" fill="black"/>
<path d="M713 396C711 394 710.5 392.5 705.5 392C696.5 394 692.5 396.5 687.5 401.5C692.186 399.743 695 398 699.5 397C704.772 396.609 709 398 713 396Z" fill="black"/>
<path d="M756.5 397.5C751 395 748.5 393.5 739.5 391.5C734.5 392 733.5 393.5 732 395.5C734.5 396.5 737 396.5 740.5 396.5L756.5 397.5Z" fill="black"/>
<path d="M713.5 378.5C709.5 377 698.5 375 698.5 375C705.5 378.5 710.5 381.5 713.5 387C715 385.5 715 383 713.5 378.5Z" fill="black"/>
<path d="M733 377C727 381.5 730 387 732 388C733.562 385.266 735 377.5 745.5 376.5L733 377Z" fill="black"/>
<path d="M614.693 388.905C614.364 388.799 614.012 388.979 613.905 389.307C613.799 389.636 613.979 389.988 614.307 390.095L614.693 388.905ZM649.3 386.452C648.997 386.286 648.618 386.397 648.452 386.7C648.286 387.003 648.397 387.382 648.7 387.548L649.3 386.452ZM625.581 408.38C625.239 408.335 624.925 408.576 624.88 408.919C624.835 409.261 625.076 409.575 625.419 409.62L625.581 408.38ZM800.785 384.556C801.092 384.399 801.214 384.022 801.056 383.715C800.899 383.408 800.522 383.286 800.215 383.444L800.785 384.556ZM835.703 385.591C836.03 385.479 836.203 385.123 836.091 384.797C835.979 384.47 835.623 384.297 835.297 384.409L835.703 385.591ZM826.099 404.617C826.44 404.562 826.672 404.242 826.617 403.901C826.562 403.56 826.242 403.328 825.901 403.383L826.099 404.617ZM730.336 408.527C730.627 408.342 730.713 407.956 730.527 407.664C730.342 407.373 729.956 407.287 729.664 407.473L730.336 408.527ZM762 418.5L762.09 419.118C762.427 419.069 762.662 418.76 762.62 418.423C762.578 418.085 762.274 417.843 761.935 417.878L762 418.5ZM724.5 416.5L724.858 415.988L724.697 415.875H724.5V416.5ZM723.5 416.5V415.875H723.365L723.241 415.931L723.5 416.5ZM705 423L704.983 423.625L705.006 423.625L705.03 423.624L705 423ZM686.5 422.5L686.483 421.875C686.145 421.884 685.875 422.161 685.875 422.5C685.875 422.839 686.145 423.116 686.483 423.125L686.5 422.5ZM705 422V421.375H704.992L704.983 421.375L705 422ZM718.822 407.964C718.526 407.786 718.142 407.882 717.964 408.178C717.786 408.474 717.882 408.858 718.178 409.036L718.822 407.964ZM738.058 408.058C737.814 408.302 737.814 408.698 738.058 408.942C738.302 409.186 738.698 409.186 738.942 408.942L738.058 408.058ZM739.942 407.942C740.186 407.698 740.186 407.302 739.942 407.058C739.698 406.814 739.302 406.814 739.058 407.058L739.942 407.942ZM742.058 411.058C741.814 411.302 741.814 411.698 742.058 411.942C742.302 412.186 742.698 412.186 742.942 411.942L742.058 411.058ZM743.942 410.942C744.186 410.698 744.186 410.302 743.942 410.058C743.698 409.814 743.302 409.814 743.058 410.058L743.942 410.942ZM708.942 406.058C708.698 405.814 708.302 405.814 708.058 406.058C707.814 406.302 707.814 406.698 708.058 406.942L708.942 406.058ZM709.058 407.942C709.302 408.186 709.698 408.186 709.942 407.942C710.186 407.698 710.186 407.302 709.942 407.058L709.058 407.942ZM705.058 411.942C705.302 412.186 705.698 412.186 705.942 411.942C706.186 411.698 706.186 411.302 705.942 411.058L705.058 411.942ZM704.942 410.058C704.698 409.814 704.302 409.814 704.058 410.058C703.814 410.302 703.814 410.698 704.058 410.942L704.942 410.058ZM705.5 392L705.562 391.378L705.462 391.368L705.364 391.39L705.5 392ZM713 396L713.28 396.559L714.055 396.171L713.442 395.558L713 396ZM699.5 397L699.454 396.377L699.409 396.38L699.364 396.39L699.5 397ZM687.5 401.5L687.058 401.058L687.719 402.085L687.5 401.5ZM739.5 391.5L739.636 390.89L739.538 390.868L739.438 390.878L739.5 391.5ZM756.5 397.5L756.461 398.124L756.759 396.931L756.5 397.5ZM740.5 396.5L740.539 395.876L740.52 395.875H740.5V396.5ZM732 395.5L731.5 395.125L731.011 395.777L731.768 396.08L732 395.5ZM698.5 375L698.612 374.385L698.22 375.559L698.5 375ZM713.5 378.5L714.093 378.302L713.999 378.019L713.719 377.915L713.5 378.5ZM713.5 387L712.951 387.299L713.351 388.033L713.942 387.442L713.5 387ZM732 388L731.72 388.559L732.249 388.823L732.543 388.31L732 388ZM733 377L732.975 376.375L732.781 376.383L732.625 376.5L733 377ZM745.5 376.5L745.559 377.122L745.475 375.875L745.5 376.5ZM675.442 338.058C675.198 337.814 674.802 337.814 674.558 338.058C674.314 338.302 674.314 338.698 674.558 338.942L675.442 338.058ZM771.451 335.433C771.69 335.184 771.682 334.788 771.433 334.549C771.184 334.31 770.788 334.318 770.549 334.567L771.451 335.433ZM755.004 343.37C755.208 343.091 755.148 342.7 754.87 342.496C754.591 342.292 754.2 342.352 753.996 342.63L755.004 343.37ZM696.028 344.665C695.843 344.374 695.457 344.287 695.165 344.472C694.874 344.657 694.787 345.043 694.972 345.335L696.028 344.665ZM614.307 390.095C649.826 401.601 664.845 405.606 698.363 413.11L698.637 411.89C665.155 404.394 650.174 400.399 614.693 388.905L614.307 390.095ZM648.7 387.548C669.755 399.078 680.306 402.094 702.298 409.592L702.702 408.408C680.694 400.906 670.245 397.922 649.3 386.452L648.7 387.548ZM625.419 409.62C655.939 413.622 672.967 415.125 704 415.125V413.875C673.033 413.875 656.061 412.378 625.581 408.38L625.419 409.62ZM800.215 383.444C780.717 393.443 770.25 398.925 748.794 406.41L749.206 407.59C770.75 400.075 781.283 394.557 800.785 384.556L800.215 383.444ZM835.297 384.409C803.306 395.406 786.319 400.902 753.336 409.897L753.664 411.103C786.681 402.098 803.694 396.594 835.703 385.591L835.297 384.409ZM825.901 403.383C797.892 407.884 781.922 410.879 753.456 412.877L753.544 414.123C782.078 412.121 798.108 409.116 826.099 404.617L825.901 403.383ZM729.664 407.473L724.164 410.973L724.836 412.027L730.336 408.527L729.664 407.473ZM723.875 411.5C723.875 414.056 725.831 416.594 728.452 418.448C731.103 420.323 734.601 421.625 738 421.625V420.375C734.899 420.375 731.647 419.177 729.173 417.427C726.669 415.656 725.125 413.444 725.125 411.5H723.875ZM738 421.625C747.035 421.625 752.795 420.087 762.065 419.122L761.935 417.878C752.46 418.865 746.965 420.375 738 420.375V421.625ZM761.91 417.882C757.2 418.568 754.08 419.456 750.767 420.151C747.448 420.847 743.835 421.375 738 421.375V422.625C743.926 422.625 747.626 422.087 751.024 421.374C754.428 420.661 757.428 419.798 762.09 419.118L761.91 417.882ZM738 421.375C734.567 421.375 732.544 420.886 730.78 420.003C728.959 419.093 727.421 417.782 724.858 415.988L724.142 417.012C726.579 418.718 728.291 420.157 730.22 421.122C732.206 422.114 734.433 422.625 738 422.625V421.375ZM724.5 415.875H724V417.125H724.5V415.875ZM724 415.875H723.5V417.125H724V415.875ZM723.241 415.931C717.568 418.51 715.311 421.883 704.97 422.376L705.03 423.624C715.689 423.117 718.432 419.49 723.759 417.069L723.241 415.931ZM705.017 422.375L686.517 421.875L686.483 423.125L704.983 423.625L705.017 422.375ZM686.517 423.125L705.017 422.625L704.983 421.375L686.483 421.875L686.517 423.125ZM705 422.625C707.879 422.625 712.601 421.335 716.588 419.373C718.589 418.389 720.447 417.215 721.814 415.914C723.169 414.623 724.125 413.126 724.125 411.5H722.875C722.875 412.624 722.206 413.815 720.952 415.008C719.709 416.191 717.973 417.299 716.037 418.252C712.149 420.165 707.621 421.375 705 421.375V422.625ZM723.822 410.964L718.822 407.964L718.178 409.036L723.178 412.036L723.822 410.964ZM723.5 412.125H724.5V410.875H723.5V412.125ZM738.942 408.942L739.942 407.942L739.058 407.058L738.058 408.058L738.942 408.942ZM742.942 411.942L743.942 410.942L743.058 410.058L742.058 411.058L742.942 411.942ZM708.058 406.942L709.058 407.942L709.942 407.058L708.942 406.058L708.058 406.942ZM705.942 411.058L704.942 410.058L704.058 410.942L705.058 411.942L705.942 411.058ZM705.438 392.622C707.88 392.866 709.14 393.347 710.021 393.953C710.468 394.26 710.839 394.614 711.233 395.031C711.613 395.432 712.054 395.937 712.558 396.442L713.442 395.558C712.946 395.063 712.575 394.63 712.142 394.172C711.723 393.729 711.282 393.303 710.729 392.922C709.61 392.153 708.12 391.634 705.562 391.378L705.438 392.622ZM712.72 395.441C710.858 396.372 708.925 396.527 706.741 396.479C704.591 396.431 702.128 396.179 699.454 396.377L699.546 397.623C702.144 397.431 704.431 397.678 706.713 397.728C708.961 397.778 711.142 397.628 713.28 396.559L712.72 395.441ZM699.364 396.39C697.063 396.901 695.196 397.603 693.327 398.39C691.449 399.181 689.609 400.042 687.281 400.915L687.719 402.085C690.077 401.201 691.987 400.311 693.813 399.542C695.647 398.769 697.437 398.099 699.636 397.61L699.364 396.39ZM687.942 401.942C690.419 399.465 692.621 397.635 695.299 396.174C697.98 394.711 701.169 393.603 705.636 392.61L705.364 391.39C700.831 392.397 697.52 393.539 694.701 395.076C691.879 396.615 689.581 398.535 687.058 401.058L687.942 401.942ZM739.364 392.11C748.293 394.094 750.74 395.568 756.241 398.069L756.759 396.931C751.26 394.432 748.707 392.906 739.636 390.89L739.364 392.11ZM756.539 396.876L740.539 395.876L740.461 397.124L756.461 398.124L756.539 396.876ZM740.5 395.875C736.973 395.875 734.6 395.867 732.232 394.92L731.768 396.08C734.4 397.133 737.027 397.125 740.5 397.125V395.875ZM732.5 395.875C733.265 394.855 733.825 394.078 734.777 393.462C735.724 392.85 737.114 392.367 739.562 392.122L739.438 390.878C736.886 391.133 735.276 391.65 734.098 392.413C732.925 393.172 732.235 394.145 731.5 395.125L732.5 395.875ZM698.5 375C698.388 375.615 698.388 375.615 698.388 375.615C698.388 375.615 698.388 375.615 698.389 375.615C698.389 375.615 698.389 375.615 698.39 375.615C698.391 375.615 698.393 375.616 698.396 375.616C698.401 375.617 698.409 375.619 698.419 375.621C698.44 375.624 698.471 375.63 698.511 375.637C698.592 375.652 698.712 375.675 698.866 375.703C699.173 375.761 699.617 375.844 700.163 375.95C701.254 376.16 702.75 376.456 704.371 376.799C707.63 377.488 711.332 378.355 713.281 379.085L713.719 377.915C711.668 377.145 707.87 376.262 704.629 375.576C703 375.231 701.496 374.934 700.4 374.722C699.851 374.617 699.405 374.532 699.095 374.474C698.94 374.446 698.82 374.423 698.738 374.408C698.697 374.401 698.665 374.395 698.644 374.391C698.634 374.389 698.626 374.388 698.62 374.387C698.617 374.386 698.615 374.386 698.614 374.385C698.613 374.385 698.613 374.385 698.612 374.385C698.612 374.385 698.612 374.385 698.612 374.385C698.612 374.385 698.612 374.385 698.5 375ZM712.907 378.698C713.65 380.927 714 382.601 714 383.875C714 385.126 713.664 385.952 713.058 386.558L713.942 387.442C714.836 386.548 715.25 385.374 715.25 383.875C715.25 382.399 714.85 380.573 714.093 378.302L712.907 378.698ZM714.049 386.701C710.946 381.013 705.778 377.94 698.78 374.441L698.22 375.559C705.222 379.06 710.054 381.987 712.951 387.299L714.049 386.701ZM732.28 387.441C731.909 387.256 731.423 386.818 730.994 386.153C730.572 385.499 730.233 384.666 730.12 383.737C729.9 381.92 730.534 379.631 733.375 377.5L732.625 376.5C729.466 378.869 728.6 381.58 728.88 383.888C729.017 385.021 729.428 386.033 729.944 386.831C730.452 387.619 731.091 388.244 731.72 388.559L732.28 387.441ZM733.025 377.625L745.525 377.125L745.475 375.875L732.975 376.375L733.025 377.625ZM745.441 375.878C740.014 376.395 736.874 378.676 734.904 381.217C733.929 382.475 733.252 383.782 732.724 384.929C732.177 386.118 731.831 387.036 731.457 387.69L732.543 388.31C732.95 387.597 733.369 386.519 733.86 385.452C734.369 384.343 735 383.133 735.892 381.983C737.657 379.707 740.486 377.605 745.559 377.122L745.441 375.878ZM674.558 338.942C675.33 339.714 677.137 341.267 679.484 343.279C681.844 345.303 684.777 347.815 687.835 350.53C693.966 355.972 700.542 362.182 703.997 366.871L705.003 366.129C701.458 361.318 694.784 355.028 688.665 349.595C685.598 346.872 682.656 344.353 680.298 342.33C677.925 340.296 676.17 338.786 675.442 338.058L674.558 338.942ZM770.549 334.567C758.567 347.048 752.04 353.076 741.023 366.096L741.977 366.904C752.96 353.924 759.433 347.952 771.451 335.433L770.549 334.567ZM753.996 342.63L737.496 365.13L738.504 365.87L755.004 343.37L753.996 342.63ZM694.972 345.335L707.972 365.835L709.028 365.165L696.028 344.665L694.972 345.335Z" fill="black"/>
</g>
<defs>
<filter id="filter0_i_7_28" x="291.5" y="113.488" width="598" height="109.012" filterUnits="userSpaceOnUse" color-interpolation-filters="sRGB">
<feFlood flood-opacity="0" result="BackgroundImageFix"/>
<feBlend mode="normal" in="SourceGraphic" in2="BackgroundImageFix" result="shape"/>
<feColorMatrix in="SourceAlpha" type="matrix" values="0 0 0 0 0 0 0 0 0 0 0 0 0 0 0 0 0 0 127 0" result="hardAlpha"/>
<feOffset dx="4" dy="-4"/>
<feComposite in2="hardAlpha" operator="arithmetic" k2="-1" k3="1"/>
<feColorMatrix type="matrix" values="0 0 0 0 0 0 0 0 0 0 0 0 0 0 0 0 0 0 0.25 0"/>
<feBlend mode="normal" in2="shape" result="effect1_innerShadow_7_28"/>
</filter>
<filter id="filter1_i_7_28" x="344.5" y="131.5" width="494" height="61" filterUnits="userSpaceOnUse" color-interpolation-filters="sRGB">
<feFlood flood-opacity="0" result="BackgroundImageFix"/>
<feBlend mode="normal" in="SourceGraphic" in2="BackgroundImageFix" result="shape"/>
<feColorMatrix in="SourceAlpha" type="matrix" values="0 0 0 0 0 0 0 0 0 0 0 0 0 0 0 0 0 0 127 0" result="hardAlpha"/>
<feOffset dx="4" dy="4"/>
<feComposite in2="hardAlpha" operator="arithmetic" k2="-1" k3="1"/>
<feColorMatrix type="matrix" values="0 0 0 0 0 0 0 0 0 0 0 0 0 0 0 0 0 0 0.25 0"/>
<feBlend mode="normal" in2="shape" result="effect1_innerShadow_7_28"/>
</filter>
<clipPath id="clip0_7_28">
<rect width="1108" height="973" fill="white"/>
</clipPath>
<clipPath id="clip1_7_28">
<rect width="28" height="150" fill="white" transform="translate(830.752 452) rotate(17.7591)"/>
</clipPath>
<clipPath id="clip2_7_28">
<rect width="28" height="150" fill="white" transform="matrix(0 1 -1 0 556.031 709.166)"/>
</clipPath>
<clipPath id="clip3_7_28">
<rect width="28" height="150" fill="white" transform="matrix(0 1 -1 0 691.031 575.166)"/>
</clipPath>
<clipPath id="clip4_7_28">
<rect width="28" height="150" fill="white" transform="matrix(0 1 -1 0 569 681)"/>
</clipPath>
<clipPath id="clip5_7_28">
<rect width="28" height="150" fill="white" transform="matrix(0 1 -1 0 715 547)"/>
</clipPath>
<clipPath id="clip6_7_28">
<rect width="28" height="150" fill="white" transform="matrix(0 1 -1 0 554 653)"/>
</clipPath>
<clipPath id="clip7_7_28">
<rect width="28" height="150" fill="white" transform="matrix(0 1 -1 0 844 709)"/>
</clipPath>
<clipPath id="clip8_7_28">
<rect width="28" height="150" fill="white" transform="matrix(0 1 -1 0 679 519)"/>
</clipPath>
</defs>
</svg>
