<svg width="622" height="365" viewBox="0 0 622 365" fill="none" xmlns="http://www.w3.org/2000/svg">
<path d="M369 272C368.225 268.898 365.024 258.967 366 253.5L372 237L391 234.5C391 234.5 402.911 246.613 404 257.5C404.6 263.5 410.5 278 402 285.5C401 287 398.5 286 398.5 286C396.5 284.5 394 278 394 278C394 278 394.5 286.5 392.5 287.5C392.124 287.688 390 289 389.55 288.473C388.825 287.622 388 288 387 279L386.5 286C385 287.5 384 287.5 381.5 287.5C375 285 370 276 369 272Z" fill="#A98E97"/>
<path d="M142.5 316L58 288.5C59.5 304.5 66.5 323 78 330H194.5L142.5 316Z" fill="#A98E97"/>
<path d="M324 153H257L279 115.5L321.5 122L324 153Z" fill="#A98E97"/>
<path d="M278.5 148C285 135.5 283.5 127 282 117L290 116.5C296 116 302.5 115.5 306 144.5C306.048 144.897 299 150.5 288.5 151C293.5 146.5 296.5 142.5 297 137.5C291.5 142 287.5 148 278.5 148Z" fill="#F1E6E2"/>
<path d="M142 316.5C139.071 316.891 134 318.5 130.5 318.5L177 264.5L133.5 192.5L155 142L187 132C184 122 180.5 115.5 181.5 98.5L253.5 107.5L242.5 67.5H255L318 103L335 75.5L291 33C326 42.5 348 64 379 83.5L390.5 128.5L379 140L382.5 147L375.5 148.5L388 153.5C382.5 165 380.5 173.5 379.5 186C383 207 386 217 391 233.5C396 242 396 251 389.5 251C385 251 381.5 244.5 377 241V254C375.5 258.5 367.855 258 366.5 254C356 223 349.5 207 328.5 173.5C323 157 317 145 318 124C314 132 314.5 140.5 306 144.5C304.5 135 302.5 123 290.5 117.5C293 124 295.5 130 292.5 135.5C290 129.5 288 125 283.5 119C282 129.5 281 144.5 257.5 153C260 158.5 268 159.5 268 159.5C268 159.5 268.5 164 270 166L285.5 191C286 197 286 200 282.5 205C279.5 206.5 277 204.5 275 203C272 208.5 269 208.5 264.5 207C262.5 208 261 209 258 207.5C256 203.5 256 200.5 258 194C248 181 232.5 168.5 211 154C205 155 192.861 159.5 193.5 182.5C194.5 218.5 228 235 228 275C224 297.5 225.5 311.5 196 330C174.5 328.5 160.5 326 142 316.5Z" fill="#38101C"/>
<path d="M122.5 285.5C115.5 273.5 108 267 106.5 248.5L156 254.5L164.5 276.5L122.5 285.5Z" fill="#38101C"/>
<path d="M487 140.5C467.5 138.5 428.2 134.5 427 134.5L433.5 126L383 103.5L360 81C383 81 394.5 87 407.5 93.5C431 90 437 91 454 94C476.5 81.5 482.5 81.5 499 81.5L498 83.5L482.5 116C487 126 487 131.5 487 140.5Z" fill="#38101C"/>
<path d="M387.5 100.5C396 97.5 400 95.5 413 94.5C424 94.5 427.5 97 432 100.5C431.833 106.833 431.5 120.6 431.5 121C431.5 121.4 432.333 132.667 433 138L381.5 142.5L372 135C372 121.5 375 109.5 387.5 100.5Z" fill="#411C27"/>
<path d="M376.5 91.7056L362 82.5C374.5 82.5 375.5 84.5 381 86C381.5 88 380.5 90.2056 376.5 91.7056Z" fill="#411C27"/>
<path d="M433 141.5C434 146.5 443.5 150.5 425.5 151.5L486 152C496 150 501.5 149 511 145L493.5 145.5C497 143.5 498.5 141.5 499.5 137.5L482 139C469.5 135 463.5 126.5 447.5 126C437.5 126.5 437.748 129.047 431.5 131L433 141.5Z" fill="#B499A2"/>
<path d="M373 136C369 136 364.5 135.5 360.5 130.5C360.5 137.5 364.5 140 368 144C360 143 355.5 141.5 347 138C359 155.5 390.5 152.5 411 152.5C429.5 152.5 437 151 437 148C437 146.5 434.172 145.672 433 144.5L432.5 138C432.5 133 426.5 128.5 411.5 127C395.5 127 388 136 373 136Z" fill="#F1E6E2"/>
<path d="M452 133C447 133.5 439.5 135 439.5 140.5C439.5 144 445.5 145 450 145C459.5 145 461 140.5 461 138C460.5 136 458.5 133 452 133Z" fill="#F1E6E2"/>
<path d="M430.5 121.5C428.5 115.5 427 111.5 426 103C429 105.5 429.5 107 430.5 109.5C432 103.5 433.5 99.5 436 95.5C436 106 435 115.5 430.5 121.5Z" fill="#F1E6E2"/>
<path d="M423 128.5C423 127.5 424 124 431.5 124C440 124 441 126.5 441 128.5C441 133.5 435 137 432 137C429 137 423 133.5 423 128.5Z" fill="#E1819D"/>
<path d="M391.5 99.5C383.5 92.5 377 86 360 81C362.5 97.5 368.5 108.5 375.5 117C380 109.5 384.5 103.5 391.5 99.5Z" fill="#653544"/>
<path d="M483.5 118C480 112 475.5 107.5 468.5 102C478.5 87.5 489.5 82 499 81.5C492 106 491.5 109 483.5 118Z" fill="#653544"/>
<path d="M376.066 101.169C376.066 99 368 89 360.566 82.1694C362 96 368 109 371 109C374 109 376.066 105.5 376.066 101.169Z" fill="#F5B8CA"/>
<path d="M89 232.5C86.5 267.5 89.5 263.5 96.5 277.5C108.5 300 119 301.5 130.5 305.5C128.5 307 123.5 308 115 308C106.5 308 103.5 307 95.5 304.5C107.5 315 117 315.5 130.5 318.5L114 319.5C89.5 319.5 68 303.5 59 291C57.5 287.5 58.5 285.5 59.5 283.5L59.5 283.5C61.5 287.5 63 289 66 291C64 285.5 62 281.778 62 274C64.5 243.5 84 236 89 232.5Z" fill="#F1E6E2"/>
<path d="M128.12 304.868C116.704 300.899 103.418 296.28 96 276.5C109 285 116 283 127.5 284C143 281.5 150.5 276.5 161.5 270C153 271 147.5 272 138 271.5C127 271.5 105 262.5 105 240.5C105.5 227 109 221.5 113 212C107.5 217 105.5 219.5 102 228C99.5 220.5 97.5 218 97 206C97 145 148.5 130.5 173.5 130.5C181.375 130.5 182 131 187.5 132C155.5 140.5 144 162 144 187.5C145.5 228 183 230.5 183 267C183 292.5 153.5 312.5 130.5 318.5C119.5 317.5 106.5 315 95 304C110.5 308.5 116 308.5 128.5 305L128.12 304.868Z" fill="#38101C"/>
<path d="M221.5 128.5C210.5 128.5 181.5 117.263 181.5 97.5C181.5 82 191 30 263.5 30C333 30 335.5 76 335.5 76C335 85.5 325 107 307.5 105C271 98.5 271.5 69 244.5 69C244.5 69 258.5 79.5 258.5 95.5C258.5 110 245.5 128.5 221.5 128.5Z" fill="#411C27"/>
<path d="M446 148C439.5 148 432.5 143 432.5 138.5H431.5C431.5 144 418.5 149 413 149L394.5 149.5L413 150C423.5 149.5 426 146 431.5 143.5H432H432.5C437.5 147 439 149 446 149C457.761 149 460.627 146.867 470 145.5C460.627 146.476 455 148 446 148Z" fill="black"/>
<path d="M421 123C419 121 418.5 119.5 413.5 119C404.5 121 400.5 123.5 395.5 128.5C400.186 126.743 403 125 407.5 124C412.772 123.609 417 125 421 123Z" fill="black"/>
<path d="M464.5 124.5C459 122 456.5 120.5 447.5 118.5C442.5 119 441.5 120.5 440 122.5C442.5 123.5 445 123.5 448.5 123.5L464.5 124.5Z" fill="black"/>
<path d="M421.5 105.5C417.5 104 406.5 102 406.5 102C413.5 105.5 418.5 108.5 421.5 114C423 112.5 423 110 421.5 105.5Z" fill="black"/>
<path d="M441 104C435 108.5 438 114 440 115C441.562 112.266 443 104.5 453.5 103.5L441 104Z" fill="black"/>
<path d="M322.693 115.905C322.364 115.799 322.012 115.979 321.905 116.307C321.799 116.636 321.979 116.988 322.307 117.095L322.693 115.905ZM357.3 113.452C356.997 113.286 356.618 113.397 356.452 113.7C356.286 114.003 356.397 114.382 356.7 114.548L357.3 113.452ZM333.581 135.38C333.239 135.335 332.925 135.576 332.88 135.919C332.835 136.261 333.076 136.575 333.419 136.62L333.581 135.38ZM508.785 111.556C509.092 111.399 509.214 111.022 509.056 110.715C508.899 110.408 508.522 110.286 508.215 110.444L508.785 111.556ZM543.703 112.591C544.03 112.479 544.203 112.123 544.091 111.797C543.979 111.47 543.623 111.297 543.297 111.409L543.703 112.591ZM534.099 131.617C534.44 131.562 534.672 131.242 534.617 130.901C534.562 130.56 534.242 130.328 533.901 130.383L534.099 131.617ZM438.336 135.527C438.627 135.342 438.713 134.956 438.527 134.664C438.342 134.373 437.956 134.287 437.664 134.473L438.336 135.527ZM470 145.5L470.09 146.118C470.427 146.069 470.662 145.76 470.62 145.423C470.578 145.085 470.274 144.843 469.935 144.878L470 145.5ZM432.5 143.5L432.858 142.988L432.697 142.875H432.5V143.5ZM431.5 143.5V142.875H431.365L431.241 142.931L431.5 143.5ZM413 150L412.983 150.625L413.006 150.625L413.03 150.624L413 150ZM394.5 149.5L394.483 148.875C394.145 148.884 393.875 149.161 393.875 149.5C393.875 149.839 394.145 150.116 394.483 150.125L394.5 149.5ZM413 149V148.375H412.992L412.983 148.375L413 149ZM426.822 134.964C426.526 134.786 426.142 134.882 425.964 135.178C425.786 135.474 425.882 135.858 426.178 136.036L426.822 134.964ZM446.058 135.058C445.814 135.302 445.814 135.698 446.058 135.942C446.302 136.186 446.698 136.186 446.942 135.942L446.058 135.058ZM447.942 134.942C448.186 134.698 448.186 134.302 447.942 134.058C447.698 133.814 447.302 133.814 447.058 134.058L447.942 134.942ZM450.058 138.058C449.814 138.302 449.814 138.698 450.058 138.942C450.302 139.186 450.698 139.186 450.942 138.942L450.058 138.058ZM451.942 137.942C452.186 137.698 452.186 137.302 451.942 137.058C451.698 136.814 451.302 136.814 451.058 137.058L451.942 137.942ZM416.942 133.058C416.698 132.814 416.302 132.814 416.058 133.058C415.814 133.302 415.814 133.698 416.058 133.942L416.942 133.058ZM417.058 134.942C417.302 135.186 417.698 135.186 417.942 134.942C418.186 134.698 418.186 134.302 417.942 134.058L417.058 134.942ZM413.058 138.942C413.302 139.186 413.698 139.186 413.942 138.942C414.186 138.698 414.186 138.302 413.942 138.058L413.058 138.942ZM412.942 137.058C412.698 136.814 412.302 136.814 412.058 137.058C411.814 137.302 411.814 137.698 412.058 137.942L412.942 137.058ZM413.5 119L413.562 118.378L413.462 118.368L413.364 118.39L413.5 119ZM421 123L421.28 123.559L422.055 123.171L421.442 122.558L421 123ZM407.5 124L407.454 123.377L407.409 123.38L407.364 123.39L407.5 124ZM395.5 128.5L395.058 128.058L395.719 129.085L395.5 128.5ZM447.5 118.5L447.636 117.89L447.538 117.868L447.438 117.878L447.5 118.5ZM464.5 124.5L464.461 125.124L464.759 123.931L464.5 124.5ZM448.5 123.5L448.539 122.876L448.52 122.875H448.5V123.5ZM440 122.5L439.5 122.125L439.011 122.777L439.768 123.08L440 122.5ZM406.5 102L406.612 101.385L406.22 102.559L406.5 102ZM421.5 105.5L422.093 105.302L421.999 105.019L421.719 104.915L421.5 105.5ZM421.5 114L420.951 114.299L421.351 115.033L421.942 114.442L421.5 114ZM440 115L439.72 115.559L440.249 115.823L440.543 115.31L440 115ZM441 104L440.975 103.375L440.781 103.383L440.625 103.5L441 104ZM453.5 103.5L453.559 104.122L453.475 102.875L453.5 103.5ZM383.442 65.0581C383.198 64.814 382.802 64.814 382.558 65.0581C382.314 65.3021 382.314 65.6979 382.558 65.9419L383.442 65.0581ZM479.451 62.4328C479.69 62.1838 479.682 61.7882 479.433 61.5491C479.184 61.3101 478.788 61.3182 478.549 61.5672L479.451 62.4328ZM463.004 70.3696C463.208 70.0912 463.148 69.7001 462.87 69.496C462.591 69.2919 462.2 69.352 461.996 69.6304L463.004 70.3696ZM404.028 71.6653C403.843 71.3738 403.457 71.2873 403.165 71.4722C402.874 71.657 402.787 72.0432 402.972 72.3347L404.028 71.6653ZM322.307 117.095C357.826 128.601 372.845 132.606 406.363 140.11L406.637 138.89C373.155 131.394 358.174 127.399 322.693 115.905L322.307 117.095ZM356.7 114.548C377.755 126.078 388.306 129.094 410.298 136.592L410.702 135.408C388.694 127.906 378.245 124.922 357.3 113.452L356.7 114.548ZM333.419 136.62C363.939 140.622 380.967 142.125 412 142.125V140.875C381.033 140.875 364.061 139.378 333.581 135.38L333.419 136.62ZM508.215 110.444C488.717 120.443 478.25 125.925 456.794 133.41L457.206 134.59C478.75 127.075 489.283 121.557 508.785 111.556L508.215 110.444ZM543.297 111.409C511.306 122.406 494.319 127.902 461.336 136.897L461.664 138.103C494.681 129.098 511.694 123.594 543.703 112.591L543.297 111.409ZM533.901 130.383C505.892 134.884 489.922 137.879 461.456 139.877L461.544 141.123C490.078 139.121 506.108 136.116 534.099 131.617L533.901 130.383ZM437.664 134.473L432.164 137.973L432.836 139.027L438.336 135.527L437.664 134.473ZM431.875 138.5C431.875 141.056 433.831 143.594 436.452 145.448C439.103 147.323 442.601 148.625 446 148.625V147.375C442.899 147.375 439.647 146.177 437.173 144.427C434.669 142.656 433.125 140.444 433.125 138.5H431.875ZM446 148.625C455.035 148.625 460.795 147.087 470.065 146.122L469.935 144.878C460.46 145.865 454.965 147.375 446 147.375V148.625ZM469.91 144.882C465.2 145.568 462.08 146.456 458.767 147.151C455.448 147.847 451.835 148.375 446 148.375V149.625C451.926 149.625 455.626 149.087 459.024 148.374C462.428 147.661 465.428 146.798 470.09 146.118L469.91 144.882ZM446 148.375C442.567 148.375 440.544 147.886 438.78 147.003C436.959 146.093 435.421 144.782 432.858 142.988L432.142 144.012C434.579 145.718 436.291 147.157 438.22 148.122C440.206 149.114 442.433 149.625 446 149.625V148.375ZM432.5 142.875H432V144.125H432.5V142.875ZM432 142.875H431.5V144.125H432V142.875ZM431.241 142.931C425.568 145.51 423.311 148.883 412.97 149.376L413.03 150.624C423.689 150.117 426.432 146.49 431.759 144.069L431.241 142.931ZM413.017 149.375L394.517 148.875L394.483 150.125L412.983 150.625L413.017 149.375ZM394.517 150.125L413.017 149.625L412.983 148.375L394.483 148.875L394.517 150.125ZM413 149.625C415.879 149.625 420.601 148.335 424.588 146.373C426.589 145.389 428.447 144.215 429.814 142.914C431.169 141.623 432.125 140.126 432.125 138.5H430.875C430.875 139.624 430.206 140.815 428.952 142.008C427.709 143.191 425.973 144.299 424.037 145.252C420.149 147.165 415.621 148.375 413 148.375V149.625ZM431.822 137.964L426.822 134.964L426.178 136.036L431.178 139.036L431.822 137.964ZM431.5 139.125H432.5V137.875H431.5V139.125ZM446.942 135.942L447.942 134.942L447.058 134.058L446.058 135.058L446.942 135.942ZM450.942 138.942L451.942 137.942L451.058 137.058L450.058 138.058L450.942 138.942ZM416.058 133.942L417.058 134.942L417.942 134.058L416.942 133.058L416.058 133.942ZM413.942 138.058L412.942 137.058L412.058 137.942L413.058 138.942L413.942 138.058ZM413.438 119.622C415.88 119.866 417.14 120.347 418.021 120.953C418.468 121.26 418.839 121.614 419.233 122.031C419.613 122.432 420.054 122.937 420.558 123.442L421.442 122.558C420.946 122.063 420.575 121.63 420.142 121.172C419.723 120.729 419.282 120.303 418.729 119.922C417.61 119.153 416.12 118.634 413.562 118.378L413.438 119.622ZM420.72 122.441C418.858 123.372 416.925 123.527 414.741 123.479C412.591 123.431 410.128 123.179 407.454 123.377L407.546 124.623C410.144 124.431 412.431 124.678 414.713 124.728C416.961 124.778 419.142 124.628 421.28 123.559L420.72 122.441ZM407.364 123.39C405.063 123.901 403.196 124.603 401.327 125.39C399.449 126.181 397.609 127.042 395.281 127.915L395.719 129.085C398.077 128.201 399.987 127.311 401.813 126.542C403.647 125.769 405.437 125.099 407.636 124.61L407.364 123.39ZM395.942 128.942C398.419 126.465 400.621 124.635 403.299 123.174C405.98 121.711 409.169 120.603 413.636 119.61L413.364 118.39C408.831 119.397 405.52 120.539 402.701 122.076C399.879 123.615 397.581 125.535 395.058 128.058L395.942 128.942ZM447.364 119.11C456.293 121.094 458.74 122.568 464.241 125.069L464.759 123.931C459.26 121.432 456.707 119.906 447.636 117.89L447.364 119.11ZM464.539 123.876L448.539 122.876L448.461 124.124L464.461 125.124L464.539 123.876ZM448.5 122.875C444.973 122.875 442.6 122.867 440.232 121.92L439.768 123.08C442.4 124.133 445.027 124.125 448.5 124.125V122.875ZM440.5 122.875C441.265 121.855 441.825 121.078 442.777 120.462C443.724 119.85 445.114 119.367 447.562 119.122L447.438 117.878C444.886 118.133 443.276 118.65 442.098 119.413C440.925 120.172 440.235 121.145 439.5 122.125L440.5 122.875ZM406.5 102C406.388 102.615 406.388 102.615 406.388 102.615C406.388 102.615 406.388 102.615 406.389 102.615C406.389 102.615 406.389 102.615 406.39 102.615C406.391 102.615 406.393 102.616 406.396 102.616C406.401 102.617 406.409 102.619 406.419 102.621C406.44 102.624 406.471 102.63 406.511 102.637C406.592 102.652 406.712 102.675 406.866 102.703C407.173 102.761 407.617 102.844 408.163 102.95C409.254 103.16 410.75 103.456 412.371 103.799C415.63 104.488 419.332 105.355 421.281 106.085L421.719 104.915C419.668 104.145 415.87 103.262 412.629 102.576C411 102.231 409.496 101.934 408.4 101.722C407.851 101.617 407.405 101.532 407.095 101.474C406.94 101.446 406.82 101.423 406.738 101.408C406.697 101.401 406.665 101.395 406.644 101.391C406.634 101.389 406.626 101.388 406.62 101.387C406.617 101.386 406.615 101.386 406.614 101.385C406.613 101.385 406.613 101.385 406.612 101.385C406.612 101.385 406.612 101.385 406.612 101.385C406.612 101.385 406.612 101.385 406.5 102ZM420.907 105.698C421.65 107.927 422 109.601 422 110.875C422 112.126 421.664 112.952 421.058 113.558L421.942 114.442C422.836 113.548 423.25 112.374 423.25 110.875C423.25 109.399 422.85 107.573 422.093 105.302L420.907 105.698ZM422.049 113.701C418.946 108.013 413.778 104.94 406.78 101.441L406.22 102.559C413.222 106.06 418.054 108.987 420.951 114.299L422.049 113.701ZM440.28 114.441C439.909 114.256 439.423 113.818 438.994 113.153C438.572 112.499 438.233 111.666 438.12 110.737C437.9 108.92 438.534 106.631 441.375 104.5L440.625 103.5C437.466 105.869 436.6 108.58 436.88 110.888C437.017 112.021 437.428 113.033 437.944 113.831C438.452 114.619 439.091 115.244 439.72 115.559L440.28 114.441ZM441.025 104.625L453.525 104.125L453.475 102.875L440.975 103.375L441.025 104.625ZM453.441 102.878C448.014 103.395 444.874 105.676 442.904 108.217C441.929 109.475 441.252 110.782 440.724 111.929C440.177 113.118 439.831 114.036 439.457 114.69L440.543 115.31C440.95 114.597 441.369 113.519 441.86 112.452C442.369 111.343 443 110.133 443.892 108.983C445.657 106.707 448.486 104.605 453.559 104.122L453.441 102.878ZM382.558 65.9419C383.33 66.7138 385.137 68.2665 387.484 70.2791C389.844 72.3031 392.777 74.8153 395.835 77.5299C401.966 82.9724 408.542 89.1815 411.997 93.8707L413.003 93.1293C409.458 88.3185 402.784 82.0276 396.665 76.5951C393.598 73.8722 390.656 71.3532 388.297 69.3303C385.925 67.296 384.17 65.7862 383.442 65.0581L382.558 65.9419ZM478.549 61.5672C466.567 74.0483 460.04 80.0763 449.023 93.0963L449.977 93.9037C460.96 80.9237 467.433 74.9517 479.451 62.4328L478.549 61.5672ZM461.996 69.6304L445.496 92.1304L446.504 92.8696L463.004 70.3696L461.996 69.6304ZM402.972 72.3347L415.972 92.8347L417.028 92.1653L404.028 71.6653L402.972 72.3347Z" fill="black"/>
</svg>
