<svg width="360" height="285" viewBox="0 0 360 285" fill="none" xmlns="http://www.w3.org/2000/svg">
<path d="M199 250C193.5 256.5 187.5 259.5 180 259.5C172 259.5 168.5 257.5 161 250H38C32.5 250 21.5 243 21.5 233V49C21.5 40 30 31 39 31H321C331 31 339 41.5 339 49V232.5C339 238.5 331.5 250 322 250H199Z" fill="#FF4F4F" stroke="black" stroke-width="4"/>
<path d="M180 45C180 45 141.5 26.9291 107.5 27C85.891 27.045 57.0059 37.0645 42 42.9028V233.5L43 235C43 235 71.5 220 107.5 220C143.5 220 180 235 180 235C180 235 217 220 255 220C288 220 317 235 317 235L318 233.5V42.8543C303.412 37.1084 275.774 27.3813 255 27C223 26.4126 180 45 180 45Z" fill="#E9DFDA"/>
<path d="M32 239L33 240H327L328 239V47.5C328 47.5 324.166 45.2827 318 42.8543V233.5L317 235C317 235 288 220 255 220C217 220 180 235 180 235C180 235 143.5 220 107.5 220C71.5 220 43 235 43 235L42 233.5V42.9028C35.8248 45.3054 32 47.5 32 47.5V239Z" fill="#C4B0A2"/>
<path d="M180 45C180 45 141.5 26.9291 107.5 27C85.891 27.045 57.0059 37.0645 42 42.9028M180 45C180 45 223 26.4126 255 27C275.774 27.3813 303.412 37.1084 318 42.8543M180 45V235M42 42.9028C35.8248 45.3054 32 47.5 32 47.5V239L33 240H327L328 239V47.5C328 47.5 324.166 45.2827 318 42.8543M42 42.9028V233.5L43 235C43 235 71.5 220 107.5 220C143.5 220 180 235 180 235M180 235C180 235 217 220 255 220C288 220 317 235 317 235L318 233.5V42.8543M55 54.5C55 54.5 71 43 107.5 42.5C144 42 165.5 58.5 165.5 58.5M55 72.5C55 72.5 75.5 61.5 107.5 61.5C139.5 61.5 165.5 77 165.5 77M55 91.5C55 91.5 76.5 80.5 107.5 80.5C146.5 80.5 165.5 96 165.5 96M165.5 114.5C165.5 114.5 149 99.5 107.5 99.5C78 99.5 55 110 55 110M55 129C55 129 79 117.5 107.5 118C146.994 118.693 165.5 133.5 165.5 133.5M165.5 152.5C165.5 152.5 149 137 107.5 137C76.5 137 55 148 55 148M55 166.5C55 166.5 75.5 156 107.5 156C150 156 165.5 171 165.5 171M165.5 190C165.5 190 147 174.5 108.5 174.5C76 174.5 55 186 55 186M55 204.5C55 204.5 78.5 193.097 107.5 193.5C149.5 194.084 165.5 209 165.5 209M307 54.5C307 54.5 291 43 254.5 42.5C218 42 196.5 58.5 196.5 58.5M307 72.5C307 72.5 286.5 61.5 254.5 61.5C222.5 61.5 196.5 77 196.5 77M307 91.5C307 91.5 285.5 80.5 254.5 80.5C215.5 80.5 196.5 96 196.5 96M196.5 114.5C196.5 114.5 213 99.5 254.5 99.5C284 99.5 307 110 307 110M307 129C307 129 283 117.5 254.5 118C215.006 118.693 196.5 133.5 196.5 133.5M196.5 152.5C196.5 152.5 213 137 254.5 137C285.5 137 307 148 307 148M307 166.5C307 166.5 286.5 156 254.5 156C212 156 196.5 171 196.5 171M196.5 190C196.5 190 215 174.5 253.5 174.5C286 174.5 307 186 307 186M307 204.5C307 204.5 283.5 193.097 254.5 193.5C212.5 194.084 196.5 209 196.5 209" stroke="black" stroke-width="3" stroke-linecap="round"/>
</svg>
